<svg width="506" height="506" fill="none" xmlns="http://www.w3.org/2000/svg"><path d="M252.5 79C156.126 79 78 157.126 78 253.5S156.127 428 252.5 428c96.374 0 174.5-78.126 174.5-174.5S348.874 79 252.5 79zM115.496 255.319l135.185 135.185c-74.232-.967-134.218-60.953-135.185-135.185zm167.673 131.76L118.921 222.831c13.928-60.912 68.445-106.358 133.579-106.358 45.53 0 85.866 22.212 110.784 56.384l-18.972 16.74c-20.213-28.986-53.795-47.956-91.812-47.956-48.404 0-89.623 30.745-105.203 73.771l143.291 143.291c34.798-12.601 61.561-41.976 70.524-78.357h-59.394V253.5h87.809c0 65.134-45.446 119.651-106.358 133.579z" fill="#744C9E"/></svg>