<svg width="506" height="506" viewBox="0 0 506 506" fill="none" xmlns="http://www.w3.org/2000/svg">
<path d="M252.5 79C156.126 79 78 157.126 78 253.5C78 349.874 156.127 428 252.5 428C348.874 428 427 349.874 427 253.5C427 157.126 348.874 79 252.5 79ZM115.496 255.319L250.681 390.504C176.449 389.537 116.463 329.551 115.496 255.319ZM283.169 387.079L118.921 222.831C132.849 161.919 187.366 116.473 252.5 116.473C298.03 116.473 338.366 138.685 363.284 172.857L344.312 189.597C324.099 160.611 290.517 141.641 252.5 141.641C204.096 141.641 162.877 172.386 147.297 215.412L290.588 358.703C325.386 346.102 352.149 316.727 361.112 280.346H301.718V253.5H364.359V253.5H389.527V253.5C389.527 318.634 344.081 373.151 283.169 387.079Z" fill="#744C9E"/>
</svg>
