<svg width="506" height="506" fill="none" xmlns="http://www.w3.org/2000/svg"><path d="M96.352 347.16l14.376 8.3 160.15-277.38-14.376-8.3-160.15 277.38z" fill="#E535AB"/><path d="M413.36 325H93.06v16.6h320.3V325z" fill="#E535AB"/><path d="M99.398 334.326l160.21 92.5 8.3-14.376-160.21-92.5-8.3 14.376zM238.572 93.247l160.21 92.5 8.3-14.376-160.21-92.5-8.3 14.376z" fill="#E535AB"/><path d="M99.442 171.308l8.3 14.376 160.21-92.5-8.3-14.376-160.21 92.5z" fill="#E535AB"/><path d="M235.678 78.083l160.15 277.38 14.376-8.3-160.15-277.38-14.376 8.3zM122.36 160.3h-16.6v185h16.6v-185z" fill="#E535AB"/><path d="M400.76 160.3h-16.6v185h16.6v-185z" fill="#E535AB"/><path d="M249.532 407.242l7.25 12.557 139.339-80.45-7.25-12.557-139.339 80.45z" fill="#E535AB"/><path d="M422.76 350.7c-9.6 16.7-31 22.4-47.7 12.8-16.7-9.6-22.4-31-12.8-47.7 9.6-16.7 31-22.4 47.7-12.8 16.8 9.7 22.5 31 12.8 47.7zM144.16 189.8c-9.6 16.7-31 22.4-47.7 12.8-16.7-9.6-22.4-31-12.8-47.7 9.6-16.7 31-22.4 47.7-12.8 16.7 9.7 22.4 31 12.8 47.7zM83.76 350.7c-9.6-16.7-3.9-38 12.8-47.7 16.7-9.6 38-3.9 47.7 12.8 9.6 16.7 3.9 38-12.8 47.7-16.8 9.6-38.1 3.9-47.7-12.8zM362.36 189.8c-9.6-16.7-3.9-38 12.8-47.7 16.7-9.6 38-3.9 47.7 12.8 9.6 16.7 3.9 38-12.8 47.7-16.7 9.6-38.1 3.9-47.7-12.8zM253.26 448.6c-19.3 0-34.9-15.6-34.9-34.9 0-19.3 15.6-34.9 34.9-34.9 19.3 0 34.9 15.6 34.9 34.9 0 19.2-15.6 34.9-34.9 34.9zM253.26 126.8c-19.3 0-34.9-15.6-34.9-34.9 0-19.3 15.6-34.9 34.9-34.9 19.3 0 34.9 15.6 34.9 34.9 0 19.3-15.6 34.9-34.9 34.9z" fill="#E535AB"/></svg>