<svg xmlns="http://www.w3.org/2000/svg" width="506" height="506" fill="#e535ab" xmlns:v="https://vecta.io/nano"><path d="M96.352 347.16l14.376 8.3 160.15-277.38-14.376-8.3-160.15 277.38z"/><path d="M413.36 325H93.06v16.6h320.3V325z"/><path d="M99.398 334.326l160.21 92.5 8.3-14.376-160.21-92.5-8.3 14.376zM238.572 93.247l160.21 92.5 8.3-14.376-160.21-92.5-8.3 14.376z"/><path d="M99.442 171.308l8.3 14.376 160.21-92.5-8.3-14.376-160.21 92.5z"/><path d="M235.678 78.083l160.15 277.38 14.376-8.3-160.15-277.38-14.376 8.3zM122.36 160.3h-16.6v185h16.6v-185z"/><path d="M400.76 160.3h-16.6v185h16.6v-185z"/><path d="M249.532 407.242l7.25 12.557 139.339-80.45-7.25-12.557-139.339 80.45z"/><path d="M422.76 350.7c-9.6 16.7-31 22.4-47.7 12.8s-22.4-31-12.8-47.7 31-22.4 47.7-12.8c16.8 9.7 22.5 31 12.8 47.7zm-278.6-160.9c-9.6 16.7-31 22.4-47.7 12.8s-22.4-31-12.8-47.7 31-22.4 47.7-12.8c16.7 9.7 22.4 31 12.8 47.7zm-60.4 160.9c-9.6-16.7-3.9-38 12.8-47.7 16.7-9.6 38-3.9 47.7 12.8 9.6 16.7 3.9 38-12.8 47.7-16.8 9.6-38.1 3.9-47.7-12.8zm278.6-160.9c-9.6-16.7-3.9-38 12.8-47.7 16.7-9.6 38-3.9 47.7 12.8 9.6 16.7 3.9 38-12.8 47.7-16.7 9.6-38.1 3.9-47.7-12.8zm-109.1 258.8c-19.3 0-34.9-15.6-34.9-34.9s15.6-34.9 34.9-34.9 34.9 15.6 34.9 34.9c0 19.2-15.6 34.9-34.9 34.9zm0-321.8c-19.3 0-34.9-15.6-34.9-34.9s15.6-34.9 34.9-34.9 34.9 15.6 34.9 34.9-15.6 34.9-34.9 34.9z"/></svg>