<svg xmlns="http://www.w3.org/2000/svg" xmlns:xlink="http://www.w3.org/1999/xlink" height="512" width="512" xmlns:v="https://vecta.io/nano"><linearGradient id="A" gradientUnits="userSpaceOnUse" x1="447.303" x2="262.303" y1="90.424" y2="321.424"><stop offset=".011" stop-color="#dcfdee"/><stop offset=".381" stop-color="#e8f1ee"/><stop offset="1" stop-color="#ffdbed"/></linearGradient><path d="M340.867.425c-95.818 8.652-105.091 192.429-146.416 286.587-20.478 46.658-68.772 94.794-60.258 149.782 9.605 62.035 72.897 80.075 121.683 74.14 120.723-14.685 172.899-141.053 180.797-260.801 4.869-73.829 20.3-260.192-95.806-249.708z" fill="url(#A)"/><path d="M447.394 365.678h-31.898a195.154 195.154 0 0015.934-34.671c-46.535-31.852-101.678-52.036-161.217-56.372 21.113-35.688 48.381-86.538 48.381-111.111 0-40.093-32.502-72.595-72.595-72.595s-72.595 32.502-72.595 72.595c0 24.573 27.269 75.423 48.381 111.111-28.84 2.1-56.644 7.924-82.942 16.989v-3.559c0-5.15-4.18-9.33-9.33-9.33h-84.91c-5.15 0-9.33 4.18-9.33 9.33v69.05c0 5.15 4.18 9.33 9.33 9.33h32.355c34.116 57.823 97.047 96.622 169.041 96.622 39.544 0 76.35-11.711 107.154-31.844v12.835c0 5.15 4.18 9.33 9.33 9.33h84.91c5.15 0 9.33-4.18 9.33-9.33v-69.05c.001-5.15-4.179-9.33-9.329-9.33z" fill="#2626bc" opacity=".11"/><path d="M446.431 310.007c-26.555 76.856-99.55 132.06-185.431 132.06s-158.876-55.204-185.431-132.06c52.785-36.13 116.642-57.26 185.431-57.26s132.646 21.13 185.431 57.26z" fill="#b7c5ff"/><ellipse cx="261" cy="287.341" fill="#9fb0fe" rx="65.979" ry="13.842"/><path d="M261 400.411v41.66c-62.13 0-117.52-28.9-153.46-73.98-2.82-3.54-5.52-7.17-8.08-10.9a194.898 194.898 0 01-20.55-38.26h101.06c5.52 0 10 4.48 10 10v13.29a9.99 9.99 0 002.93 7.07l10.22 10.21a9.99 9.99 0 007.07 2.93h12.84a9.99 9.99 0 017.07 2.93l27.97 27.98a9.99 9.99 0 012.93 7.07z" fill="#02ffb3"/><path d="M153.84 318.931v28.93c0 5.15-4.18 9.33-9.33 9.33H99.46a194.898 194.898 0 01-20.55-38.26z" fill="#01eca5"/><path d="M446.43 310.006c-10.27 29.75-27.51 56.27-49.77 77.57h-53.42a9.99 9.99 0 01-7.07-2.93l-12.72-12.72a9.99 9.99 0 01-2.93-7.07v-23.71a9.99 9.99 0 00-2.93-7.07l-15.37-15.37a9.99 9.99 0 01-2.93-7.07v-6.32c0-2.34-.82-4.59-2.3-6.37-.2-.25-.41-.48-.63-.7l-8.93-8.94a9.99 9.99 0 01-2.93-7.07v-28.66c59.81 4.22 115.21 24.45 161.93 56.43z" fill="#02ffb3"/><path d="M326.98 287.336c0 4.86-11.94 9.14-29.99 11.61-.2-.25-.41-.48-.63-.7l-8.93-8.94a9.99 9.99 0 01-2.93-7.07v-7.84c24.84 1.991 42.48 7.04 42.48 12.94z" fill="#01eca5"/><path d="M153.844 267.065v69.05c0 5.15-4.18 9.33-9.33 9.33h-84.91c-5.15 0-9.33-4.18-9.33-9.33v-69.05c0-5.15 4.18-9.33 9.33-9.33h84.91c5.15 0 9.33 4.18 9.33 9.33z" fill="#ffa8cf"/><path d="M91.486 287.054H74.779a5 5 0 110-10h16.707a5 5 0 110 10z" fill="#ff7eb8"/><use xlink:href="#C" fill="#ffc4df"/><use xlink:href="#D" fill="#8399fe"/><path d="M153.844 285.145v50.97c0 5.15-4.18 9.33-9.33 9.33h-16.4c5.15 0 9.33-4.18 9.33-9.33v-35.59c1.17-.5 2.24-1.21 3.15-2.13zm317.88 68.863v69.05c0 5.15-4.18 9.33-9.33 9.33h-84.91c-5.15 0-9.33-4.18-9.33-9.33v-69.05c0-5.15 4.18-9.33 9.33-9.33h84.91c5.15 0 9.33 4.18 9.33 9.33z" fill="#9fb0fe"/><path d="M409.366 373.997h-16.707a5 5 0 110-10h16.707a5 5 0 110 10z" fill="#dcfdee"/><use xlink:href="#C" x="317.88" y="86.943" fill="#b7c5ff"/><use xlink:href="#D" x="317.88" y="86.943" fill="#97ffd2"/><path d="M471.724 372.088v50.97c0 5.15-4.18 9.33-9.33 9.33h-16.4c5.15 0 9.33-4.18 9.33-9.33v-35.59c1.17-.5 2.24-1.21 3.15-2.13z" fill="#dcfdee"/><path d="M333.595 142.524c0 31.561-44.986 106.475-64.132 136.929-3.921 6.237-13.005 6.237-16.926 0-19.146-30.454-64.132-105.367-64.132-136.929 0-40.093 32.502-72.595 72.595-72.595s72.595 32.502 72.595 72.595z" fill="#ff7eb8"/><path d="M271.905 203.065h-21.81a5 5 0 1 1 0-10h21.81a5 5 0 1 1 0 10zm0 19h-21.81a5 5 0 1 1 0-10h21.81a5 5 0 1 1 0 10z" fill="#ffc4df"/><path d="M128.138 238.269c-5.263 0-10.355-2.851-12.961-7.827-3.734-7.135-.969-15.977 6.164-19.711s15.975-.971 19.71 6.163.969 15.976-6.164 19.711a14.52 14.52 0 0 1-6.749 1.664zm4.43-6.094h.01zm-4.459-13.112a4.608 4.608 0 0 0-4.072 6.74 4.606 4.606 0 0 0 6.213 1.942 4.608 4.608 0 0 0 1.943-6.213 4.571 4.571 0 0 0-2.704-2.258 4.647 4.647 0 0 0-1.38-.211z" fill="#8399fe"/><path d="M140.971 453.519c-7.018 0-13.226-5.088-14.401-12.234-.633-3.85.271-7.715 2.545-10.884s5.646-5.263 9.496-5.896c3.847-.634 7.713.271 10.882 2.545s5.263 5.646 5.896 9.495c.633 3.85-.271 7.714-2.545 10.883s-5.646 5.263-9.495 5.896c-.799.131-1.594.195-2.378.195zm.018-19.208a4.72 4.72 0 00-.756.062c-1.213.199-2.276.859-2.993 1.858s-1.002 2.218-.803 3.431a4.613 4.613 0 005.289 3.795c1.213-.199 2.276-.859 2.993-1.858s1.001-2.217.802-3.43a4.573 4.573 0 00-1.858-2.993 4.562 4.562 0 00-2.674-.865z" fill="#ff7eb8"/><path d="M248.638 55.16c-3.029 0-5.974-.941-8.483-2.742-3.169-2.274-5.263-5.646-5.896-9.495s.271-7.714 2.545-10.883 5.646-5.263 9.495-5.896a14.506 14.506 0 0110.883 2.545c3.169 2.274 5.263 5.646 5.896 9.495s-.271 7.714-2.545 10.883-5.646 5.263-9.495 5.896c-.802.132-1.604.197-2.4.197zm1.589-5.131h.01zm-1.549-14.079c-.251 0-.504.021-.757.062-1.213.199-2.275.859-2.992 1.858s-1.002 2.217-.803 3.43a4.573 4.573 0 001.858 2.993 4.582 4.582 0 003.431.803c1.213-.199 2.275-.859 2.992-1.858s1.002-2.217.803-3.43a4.573 4.573 0 00-1.858-2.993 4.566 4.566 0 00-2.674-.865z" fill="#01eca5"/><use xlink:href="#E" fill="#ff7eb8"/><use xlink:href="#E" x="-285.061" y="164.736" fill="#01eca5"/><path d="M476.726 354.009c0-7.902-6.429-14.331-14.331-14.331h-23.406c15.162-28.759 23.155-61.011 23.155-93.751a5 5 0 10-10 0c0 32.9-8.497 65.273-24.554 93.751h-50.102c-7.902 0-14.331 6.429-14.331 14.331v53.375l-.002.024v.095c-30.533 19.344-65.812 29.566-102.154 29.566-33.61 0-66.662-8.844-95.581-25.576-25.923-14.999-48.073-36.015-64.462-61.048h43.557c5.927 0 11.025-3.617 13.203-8.76a14.242 14.242 0 001.129-5.574v-61.907a322.72 322.72 0 0175.184-15.341c4.38 7.322 9.125 15.061 14.274 23.251 2.762 4.394 7.508 7.017 12.696 7.017s9.934-2.623 12.696-7.017a1235.45 1235.45 0 0014.276-23.253c46.365 3.82 90.418 17.255 130.958 39.958a4.999 4.999 0 006.805-1.919 5 5 0 00-1.919-6.806c-40.394-22.622-84.17-36.318-130.209-40.769 38.625-66.169 44.988-95.011 44.988-106.801 0-42.786-34.809-77.596-77.595-77.596s-77.595 34.81-77.595 77.596c0 11.79 6.363 40.632 44.989 106.803a332.729 332.729 0 00-69.938 14.474c-1.483-6.332-7.164-11.066-13.941-11.066H69.991c-.079-2.27-.134-4.547-.134-6.809a5 5 0 10-10 0c0 2.261.052 4.537.128 6.809h-.377c-7.902 0-14.331 6.429-14.331 14.33v10.552a5 5 0 1010 0v-10.552a4.335 4.335 0 014.331-4.33h84.908a4.335 4.335 0 014.331 4.33v16.007l-11.808 11.808a4.84 4.84 0 01-1.539 1.039 5.042 5.042 0 01-1.975.406h-38.22c-3.997 0-7.764 1.558-10.616 4.395L71.4 314.009a4.998 4.998 0 01-3.525 1.456H55.276v-9.748a5 5 0 10-10 0l-.002 30.398c0 7.901 6.428 14.33 14.33 14.33h29.527c17.523 28.753 42.137 52.842 71.28 69.704 30.439 17.611 65.223 26.92 100.589 26.92 36.136 0 71.279-9.606 102.154-27.842v3.83c0 7.901 6.428 14.33 14.33 14.33h84.91c6.421 0 11.868-4.245 13.685-10.075.42-1.346.646-2.776.646-4.258v-69.045zM261 74.929c37.272 0 67.595 30.323 67.595 67.596 0 31.065-48.5 110.624-63.365 134.268-.935 1.486-2.477 2.339-4.23 2.339s-3.295-.853-4.23-2.339c-14.865-23.644-63.365-103.202-63.365-134.268 0-37.273 30.323-67.596 67.595-67.596zM67.874 325.465c3.962 0 7.831-1.604 10.606-4.395l13.271-13.27a5.012 5.012 0 013.554-1.475h38.22c2.017 0 3.99-.401 5.885-1.202a14.794 14.794 0 004.721-3.193l4.714-4.714v38.899a4.3 4.3 0 01-.34 1.681 4.339 4.339 0 01-3.989 2.646H59.607a4.336 4.336 0 01-4.331-4.331v-10.646zm398.851 97.593a4.3 4.3 0 01-.34 1.681 4.336 4.336 0 01-3.99 2.646h-84.908a4.335 4.335 0 01-4.331-4.33v-10.646h12.598c3.962 0 7.831-1.605 10.605-4.395l13.271-13.271a5.014 5.014 0 013.554-1.476h38.22c2.02 0 3.995-.402 5.885-1.202a14.797 14.797 0 004.721-3.192l4.714-4.714v38.899zm-89.238-73.38h84.908a4.336 4.336 0 014.331 4.331v16.007l-11.805 11.805a4.851 4.851 0 01-1.545 1.042 5.02 5.02 0 01-1.971.404h-38.22c-3.997 0-7.763 1.558-10.616 4.395l-13.29 13.29a5 5 0 01-3.524 1.456h-12.598v-48.399a4.336 4.336 0 014.33-4.331z" fill="#2626bc"/><path d="M275.825 150.996c5.899-4.486 9.717-11.575 9.717-19.542 0-13.532-11.009-24.541-24.542-24.541s-24.542 11.009-24.542 24.541c0 7.966 3.818 15.055 9.717 19.542-5.899 4.486-9.717 11.575-9.717 19.541a5 5 0 1 0 10 0c0-8.018 6.523-14.541 14.542-14.541s14.542 6.523 14.542 14.541a5 5 0 1 0 10 0c0-7.966-3.818-15.055-9.717-19.541zm-29.366-19.542c0-8.018 6.523-14.541 14.542-14.541s14.542 6.523 14.542 14.541-6.523 14.542-14.542 14.542-14.542-6.523-14.542-14.542z" fill="#ffdbed"/><defs ><path id="C" d="M153.844 267.065v69.05c0 5.15-4.18 9.33-9.33 9.33h-16.4c5.15 0 9.33-4.18 9.33-9.33v-69.05c0-5.15-4.18-9.33-9.33-9.33h16.4c5.15 0 9.33 4.18 9.33 9.33z"/><path id="D" d="M153.844 285.145v50.97c0 5.15-4.18 9.33-9.33 9.33h-84.91c-5.15 0-9.33-4.18-9.33-9.33v-15.65h17.6c2.65 0 5.2-1.05 7.07-2.93l13.28-13.28a10.04 10.04 0 0 1 7.08-2.93h38.22c1.36 0 2.69-.28 3.92-.8 1.17-.5 2.24-1.21 3.15-2.13z"/><path id="E" d="M403.686 242.347h-3.25v-3.25a5 5 0 10-10 0v3.25h-3.25a5 5 0 100 10h3.25v3.25a5 5 0 1010 0v-3.25h3.25a5 5 0 100-10z"/></defs></svg>