<svg width="159" height="159" viewBox="0 0 159 159" fill="none" xmlns="http://www.w3.org/2000/svg">
<path fill-rule="evenodd" clip-rule="evenodd" d="M0.00424002 119.902V42.636C18.5627 43.3773 33.6817 60.508 33.6817 81.0571C33.6817 101.606 18.5712 119.169 0.00424002 119.898V119.902ZM54.1085 0H0V11.8018C34.0921 12.543 61.3013 43.424 61.3013 81.0616C61.3013 118.699 34.0921 149.58 0 150.796V158.014H57.9165L73.3246 138.38L91.0746 158.12H158.195L92.3733 85.6535L132.511 85.7553C133.424 101.581 143.746 114.802 158.58 119.923V42.238C145.141 47.1223 135.322 58.9027 132.829 73.119L91.9584 72.6997L158.165 0.017172H98.1668L75.5492 22.1252L54.1085 0.000212005V0Z" fill="#01120F"/>
</svg>
