<svg width="159" height="159" fill="none" xmlns="http://www.w3.org/2000/svg"><path fill-rule="evenodd" clip-rule="evenodd" d="M.004 119.902V42.636c18.559.741 33.678 17.872 33.678 38.421S18.572 119.17.004 119.898v.004zM54.11 0H0v11.802c34.092.741 61.301 31.622 61.301 69.26 0 37.637-27.209 68.518-61.301 69.734v7.218h57.916l15.409-19.634 17.75 19.74h67.12L92.373 85.653l40.138.102c.913 15.826 11.235 29.047 26.069 34.168V42.238c-13.439 4.884-23.258 16.665-25.751 30.881l-40.87-.42L158.164.018H98.167L75.549 22.125 54.11 0z" fill="#fff"/></svg>