<svg width="590" height="208" viewBox="0 0 590 208" fill="none" xmlns="http://www.w3.org/2000/svg">
<path d="M216.3 68.2C224.6 68.2 229.8 62.6 229.8 55.7C229.7 48.4 224.6 43 216.5 43C208.4 43 203.1 48.4 203.3 55.7C203.1 62.6 208.4 68.2 216.3 68.2Z" fill="#EA1E63"/>
<path d="M315.9 43C307.8 43 302.5 48.4 302.7 55.7C302.5 62.6 307.8 68.2 315.7 68.2C324 68.2 329.2 62.6 329.2 55.7C329.1 48.4 324 43 315.9 43V43Z" fill="#EA1E63"/>
<path d="M303.3 78.1H280.7L273.6 91.1C271.5 95.1 269.5 99.2 267.3 103.5H267C264.9 99.7 262.7 95.6 260.4 91.5L252.5 78.1H229H224.4H206.7C205.8 68.7 201.3 60.7 195 55.7C187.6 49.8 176.5 46.8 161 46.8C145.7 46.8 134.8 47.8 127 49.1V158.8H151.9V119.1C154.2 119.4 157.2 119.6 160.5 119.6C175.4 119.6 188.1 116 196.6 107.9C199.8 104.9 202.2 101.2 203.9 97V158.9H223.8H229H251.3L258.9 144.4C260.9 140.4 263 136.5 265 132.2H265.5C267.5 136.3 269.5 140.4 271.8 144.4L279.9 158.9H303.3H308.3H328.4V78.1H308H303.3ZM160.3 100.2C156.7 100.2 154 100 151.9 99.5V66.8C153.7 66.3 157.2 65.8 162.3 65.8C174.8 65.8 181.9 71.9 181.9 82.1C181.9 93.5 173.7 100.2 160.3 100.2ZM229 151V84.9L251.2 117.8L229 151ZM281.4 116.6L303.3 84.9V151.1L281.4 116.6Z" fill="#EA1E63"/>
<path d="M434.6 92.8C420.2 87.4 414 84.2 414 77.1C414 71.3 419.3 66.4 430.2 66.4C441.1 66.4 449 69.5 453.5 71.7L459 51.4C452.4 48.4 443.2 45.8 430.6 45.8C407.5 45.8 392.5 57.1 389.2 72.7V47.6H364.1V117.6C364.1 134.9 357.5 139.7 346.9 139.7C341.9 139.7 337.5 138.9 334 137.7L331.2 158C336.2 159.6 343.7 160.6 349.5 160.6C373.9 160.6 389.1 149.5 389.1 117.9V85.6C391.9 98.2 403 106.5 419 112.1C432.4 116.9 437.6 120.8 437.6 127.8C437.6 135.1 431.5 139.8 419.9 139.8C409.2 139.8 398.8 136.3 392 132.9L386.9 153.7C393.2 157.2 405.7 160.5 418.4 160.5C448.9 160.5 463.3 144.7 463.3 126C463.5 110.3 454.2 100.1 434.6 92.8V92.8Z" fill="#EA1E63"/>
</svg>
