<svg xmlns="http://www.w3.org/2000/svg" width="590" height="208" fill="#ea1e63" xmlns:v="https://vecta.io/nano"><path d="M216.3 68.2c8.3 0 13.5-5.6 13.5-12.5-.1-7.3-5.2-12.7-13.3-12.7s-13.4 5.4-13.2 12.7c-.2 6.9 5.1 12.5 13 12.5zM315.9 43c-8.1 0-13.4 5.4-13.2 12.7-.2 6.9 5.1 12.5 13 12.5 8.3 0 13.5-5.6 13.5-12.5-.1-7.3-5.2-12.7-13.3-12.7h0zm-12.6 35.1h-22.6l-7.1 13-6.3 12.4h-.3l-6.6-12-7.9-13.4H229h-4.6-17.7c-.9-9.4-5.4-17.4-11.7-22.4-7.4-5.9-18.5-8.9-34-8.9-15.3 0-26.2 1-34 2.3v109.7h24.9v-39.7c2.3.3 5.3.5 8.6.5 14.9 0 27.6-3.6 36.1-11.7 3.2-3 5.6-6.7 7.3-10.9v61.9h19.9 5.2 22.3l7.6-14.5 6.1-12.2h.5c2 4.1 4 8.2 6.3 12.2l8.1 14.5h23.4 5 20.1V78.1H308h-4.7zm-143 22.1c-3.6 0-6.3-.2-8.4-.7V66.8c1.8-.5 5.3-1 10.4-1 12.5 0 19.6 6.1 19.6 16.3 0 11.4-8.2 18.1-21.6 18.1zM229 151V84.9l22.2 32.9L229 151zm52.4-34.4l21.9-31.7v66.2l-21.9-34.5zm153.2-23.8c-14.4-5.4-20.6-8.6-20.6-15.7 0-5.8 5.3-10.7 16.2-10.7s18.8 3.1 23.3 5.3l5.5-20.3c-6.6-3-15.8-5.6-28.4-5.6-23.1 0-38.1 11.3-41.4 26.9V47.6h-25.1v70c0 17.3-6.6 22.1-17.2 22.1-5 0-9.4-.8-12.9-2l-2.8 20.3c5 1.6 12.5 2.6 18.3 2.6 24.4 0 39.6-11.1 39.6-42.7V85.6c2.8 12.6 13.9 20.9 29.9 26.5 13.4 4.8 18.6 8.7 18.6 15.7 0 7.3-6.1 12-17.7 12-10.7 0-21.1-3.5-27.9-6.9l-5.1 20.8c6.3 3.5 18.8 6.8 31.5 6.8 30.5 0 44.9-15.8 44.9-34.5.2-15.7-9.1-25.9-28.7-33.2h0z"/></svg>