<svg xmlns="http://www.w3.org/2000/svg" xmlns:xlink="http://www.w3.org/1999/xlink" viewBox="0 0 638.383 126.778" height="135.231" width="680.942" xmlns:v="https://vecta.io/nano"><path d="M115.832 100.561H57.916 0l28.958-50.157L57.916.247l28.958 50.157z" fill="#76f09b"/><path d="M538.382 1.426v100h100v-100h-100z" fill="#f55f5f"/><circle cx="474.634" cy="87.799" r="12.947" fill="#f5b862"/><g fill="#4b5562"><path d="M94.313 35.812q6.969-8.845 18.762-8.845 11.793 0 16.752 8.711 7.103-8.711 19.298-8.711 20.638 0 20.638 25.597v47.441h-20.638V51.626q0-8.711-7.103-8.711-5.093 0-8.175 3.886v53.204h-20.504V51.626q0-8.711-7.237-8.711-4.825 0-8.175 3.886v53.204H77.427v-50.39l-1.474-19.968 15.948-2.01 1.876 8.175h.536zm118.898 15.412q0-4.422-1.876-6.433-1.876-2.144-7.237-2.144-5.361 0-17.69 3.886l-5.763-12.597q4.557-2.546 12.597-4.691 8.175-2.278 15.948-2.278 7.907 0 13.133 1.876 5.361 1.876 7.639 5.629 2.412 3.618 3.082 7.237.804 3.618.804 9.113v25.195q0 4.959.938 8.041 1.072 3.082 4.422 6.701l-11.659 10.855q-3.082-1.474-6.031-4.422-2.814-2.948-4.154-5.495h-.536q-7.773 9.917-19.7 9.917-19.298 0-19.298-19.968 0-10.587 6.031-15.814 6.165-5.227 17.69-7.237l11.659-2.01v-5.361zm-15.948 28.277q0 6.567 6.969 6.567 5.361 0 9.113-3.752V69.718q-8.577 1.206-12.329 3.35-3.752 2.01-3.752 6.433z"/><use xlink:href="#B"/><use xlink:href="#B" x="50.518"/><path d="M377.564 26.967q13.401 0 19.7 7.371 5.227 6.031 6.433 20.102.402 5.629.402 14.072l-9.515 1.34h-27.607q0 7.907 2.948 11.927 2.948 3.886 10.453 3.886 7.639 0 18.36-3.886l4.154 12.597q-12.731 7.237-26.535 7.237-31.225 0-31.225-36.988 0-17.422 8.041-27.473 8.175-10.185 24.391-10.185zm4.557 19.03q-1.34-3.082-6.031-3.082-4.691 0-6.701 3.484-2.01 3.35-2.278 10.185h16.35q0-7.639-1.34-10.587zm48.933-3.618q2.01-7.103 6.701-11.257 4.691-4.154 10.855-4.154 6.299 0 11.391 2.546L455.31 45.73q-4.154-1.206-7.103-1.206-5.227 0-9.515 3.886-4.154 3.886-4.154 11.391v40.204h-20.504V49.481l-1.474-19.834 15.546-2.01 2.412 14.742h.536zm97.865 56.256q0 10.587-3.618 15.814-3.484 5.227-14.876 12.329l-11.257-11.793q6.433-4.825 7.773-8.309 1.474-3.484 1.474-13.401V29.618l20.504-2.144v71.162zM517.93 23.587q-11.123 0-11.123-12.463 0-4.825 2.948-7.907Q512.703 0 519.404 0q10.989 0 10.989 12.597 0 4.825-2.948 7.907-2.948 3.082-9.515 3.082zm21.57 25.061q0-9.783 7.773-15.814 7.773-6.031 19.566-6.031 11.793 0 18.36 5.495 6.567 5.361 7.639 15.144l-17.958 3.484q-.938-9.113-8.979-9.113-2.948 0-4.825 1.742-1.876 1.742-1.876 3.752 0 2.01.402 3.082.536 1.072 1.474 2.01 1.072.938 2.01 1.742 1.072.67 2.814 1.474 1.876.804 3.216 1.34 1.876 1.072 8.577 3.886 6.701 2.68 11.257 6.969 4.557 4.288 4.557 12.463 0 8.175-7.505 14.742-7.371 6.433-20.906 6.433-13.536 0-27.071-7.907l7.371-13.267q13.401 5.763 19.7 5.763 3.082 0 5.093-1.34 2.144-1.34 2.144-4.02 0-2.814-2.948-4.557-3.082-1.876-4.691-2.546-12.731-4.959-19.298-10.319-5.897-4.825-5.897-14.608z"/></g><defs ><path id="B" d="M270.632 28.039h18.092l-2.412 14.876h-15.68v30.689q0 6.835 1.876 9.515 1.876 2.68 6.433 2.68 1.876 0 7.639-1.34l3.618 11.927q-2.546 2.01-8.309 3.618-5.629 1.608-10.319 1.608-13.267 0-17.422-6.701-4.02-6.835-4.02-22.246V42.915h-10.319l1.876-13.401 8.845-1.206.804-13.401 19.298-5.763v18.896z"/></defs></svg>