<svg width="233" height="233" fill="none" xmlns="http://www.w3.org/2000/svg"><path d="M116.415 202.464c-2.404 0-4.648-.641-6.732-1.763l-21.317-12.662c-3.206-1.763-1.603-2.405-.641-2.725 4.327-1.443 5.129-1.763 9.617-4.328.48-.32 1.121-.16 1.602.161l16.349 9.777c.641.32 1.442.32 1.923 0l63.952-37.025c.641-.32.961-.961.961-1.763V78.248c0-.802-.32-1.443-.961-1.764L117.216 39.62c-.641-.32-1.442-.32-1.923 0L51.341 76.484c-.64.321-.961 1.122-.961 1.764v73.888c0 .641.32 1.443.962 1.763l17.47 10.098c9.456 4.808 15.387-.802 15.387-6.411V84.659c0-.962.801-1.924 1.923-1.924h8.174c.962 0 1.924.802 1.924 1.924v72.927c0 12.662-6.892 20.035-18.913 20.035-3.687 0-6.572 0-14.746-4.007l-16.83-9.617C41.566 161.593 39 157.105 39 152.296V78.408c0-4.809 2.565-9.296 6.732-11.7l63.951-37.025c4.007-2.244 9.457-2.244 13.464 0l63.951 37.024c4.167 2.405 6.732 6.892 6.732 11.7v73.889c0 4.809-2.565 9.297-6.732 11.701l-63.951 37.024c-2.084.962-4.488 1.443-6.732 1.443zm19.714-50.809c-28.049 0-33.819-12.822-33.819-23.721 0-.962.802-1.923 1.924-1.923h8.334c.962 0 1.763.641 1.763 1.602 1.282 8.495 4.969 12.662 21.958 12.662 13.464 0 19.234-3.045 19.234-10.257 0-4.168-1.603-7.213-22.599-9.297-17.471-1.763-28.37-5.609-28.37-19.554 0-12.982 10.899-20.676 29.171-20.676 20.516 0 30.613 7.053 31.895 22.439 0 .481-.16.962-.48 1.443-.321.321-.802.641-1.283.641h-8.334c-.802 0-1.603-.641-1.763-1.442-1.924-8.816-6.892-11.7-20.035-11.7-14.746 0-16.509 5.128-16.509 8.975 0 4.648 2.084 6.09 21.958 8.655 19.715 2.564 29.011 6.251 29.011 20.035-.16 14.104-11.7 22.118-32.056 22.118z" fill="#539E43"/></svg>