<svg xmlns="http://www.w3.org/2000/svg" width="120" height="60" preserveAspectRatio="xMidYMid" xmlns:v="https://vecta.io/nano"><path d="M106.784 25.332c-.271 0-.535.056-.768.188l-7.386 4.265c-.478.275-.768.796-.768 1.349v8.515c0 .553.291 1.072.768 1.348l1.929 1.112c.937.462 1.283.455 1.709.455 1.387 0 2.179-.842 2.179-2.305v-8.401c0-.119-.103-.204-.219-.204h-.925c-.119 0-.219.087-.219.204v8.405c0 .649-.676 1.301-1.772.753l-2.005-1.176c-.071-.039-.126-.109-.126-.188v-8.515c0-.081.054-.163.126-.204l7.37-4.25c.069-.04.151-.04.219 0l7.37 4.25a.25.25 0 0 1 .126.204v8.515c0 .081-.041.165-.11.204l-7.386 4.25c-.065.038-.153.038-.219 0l-1.897-1.129c-.057-.033-.134-.031-.188 0-.524.297-.622.331-1.113.502-.121.042-.305.108.063.314l2.478 1.46c.236.136.499.204.768.204s.532-.065.768-.204l7.386-4.25a1.56 1.56 0 0 0 .768-1.348v-8.515c0-.553-.291-1.072-.768-1.349l-7.386-4.265a1.54 1.54 0 0 0-.768-.188zm1.976 6.085c-2.103 0-3.356.895-3.356 2.383 0 1.613 1.243 2.058 3.262 2.258 2.415.236 2.603.591 2.603 1.066 0 .824-.657 1.176-2.211 1.176-1.952 0-2.381-.487-2.525-1.46-.017-.104-.097-.188-.204-.188h-.959c-.12.003-.217.099-.219.219 0 1.243.676 2.713 3.905 2.713 2.337 0 3.685-.915 3.685-2.525 0-1.591-1.089-2.021-3.356-2.321-2.288-.305-2.509-.451-2.509-.988 0-.443.185-1.035 1.882-1.035 1.515 0 2.075.327 2.305 1.349.02.096.105.174.204.174h.959c.059 0 .116-.036.157-.078s.068-.096.063-.157c-.148-1.76-1.322-2.587-3.685-2.587z" fill="#83cd29"/><path d="M63.363 14.169c-.083 0-.164.022-.235.063-.145.085-.234.24-.235.408v11.996c0 .118-.055.223-.157.282s-.228.059-.329 0l-1.96-1.129a.94.94 0 0 0-.941 0l-7.825 4.516c-.292.169-.471.493-.471.831v9.032a.94.94 0 0 0 .471.815l7.825 4.516c.291.169.65.169.941 0l7.825-4.516a.94.94 0 0 0 .471-.815V17.65c0-.343-.187-.664-.486-.831l-4.657-2.603c-.073-.041-.154-.048-.235-.047zM13.026 25.444c-.149.006-.289.032-.423.11L4.778 30.07c-.292.168-.471.479-.47.815l.016 12.122c0 .169.087.325.235.408s.326.087.47 0l4.642-2.666c.294-.174.486-.479.486-.815v-5.661c0-.338.178-.647.471-.815l1.976-1.145c.143-.083.305-.126.47-.126s.328.042.471.126l1.975 1.144c.293.168.47.478.47.815v5.661c0 .337.196.643.486.815l4.642 2.666c.146.087.326.087.47 0s.235-.239.235-.408l.016-12.122c.002-.337-.178-.648-.47-.815l-7.825-4.516c-.132-.078-.273-.104-.423-.11h-.094zm70.315.11c-.165 0-.328.043-.471.126l-7.825 4.516a.94.94 0 0 0-.471.815v9.032c0 .34.191.647.486.815l7.762 4.424c.287.163.636.176.925.015l4.704-2.619c.149-.083.25-.238.251-.408s-.088-.323-.235-.408l-7.872-4.516c-.147-.084-.251-.254-.251-.423V34.1c0-.169.105-.323.251-.408l2.446-1.411a.47.47 0 0 1 .471 0l2.447 1.411a.47.47 0 0 1 .235.408v2.227a.47.47 0 0 0 .235.408c.147.085.324.085.471 0l4.688-2.728c.291-.169.471-.479.471-.815v-2.179a.94.94 0 0 0-.471-.815l-7.778-4.516c-.143-.083-.305-.126-.471-.126zm-23.397 6.743c.044 0 .087.011.126.031l2.681 1.552c.073.042.126.12.126.204v3.105c0 .084-.052.162-.126.204l-2.681 1.552c-.073.041-.162.041-.235 0l-2.681-1.552c-.073-.042-.126-.12-.126-.204v-3.105c0-.084.053-.161.126-.204l2.681-1.552c.037-.021.069-.031.11-.031h0z" fill="#404137"/><path d="M36.532 25.506a.94.94 0 0 0-.471.126l-7.825 4.501c-.292.169-.47.494-.47.831v9.032c-.001.336.179.648.47.815l7.825 4.516c.291.169.65.169.941 0l7.825-4.516a.94.94 0 0 0 .471-.815v-9.032c0-.338-.178-.663-.471-.831l-7.825-4.501a.93.93 0 0 0-.471-.126zm46.793 8.06c-.031 0-.066 0-.094.015l-1.505.878c-.057.032-.093.091-.094.157v1.725c0 .065.038.124.094.157l1.505.862c.053.033.119.033.172 0l1.505-.862c.056-.032.094-.092.094-.157v-1.725c0-.065-.038-.124-.094-.157l-1.505-.878c-.028-.017-.047-.015-.078-.015z" fill="#83cd29"/></svg>