<svg width="650" height="250" xmlns="http://www.w3.org/2000/svg"><g fill="none" fill-rule="evenodd"><rect fill="#F0F3F7" width="650" height="250" rx="4"/><path d="M258.104 136.595h14.49" stroke="#2D3033" stroke-width="2" stroke-linecap="round" stroke-linejoin="round"/><path d="M295.992 126.998h-60.248c-2.336 0-4.248-1.947-4.248-4.328v-43.2c0-2.378 1.912-4.327 4.248-4.327h60.248c2.336 0 4.249 1.949 4.249 4.327v43.2c0 2.381-1.913 4.328-4.25 4.328z" stroke="#2D3033" stroke-width="2" stroke-linejoin="round"/><path d="M243.589 137.753H219.46c-1.487 0-2.698-1.251-2.698-2.78V94.95c0-1.529 1.211-2.78 2.698-2.78h24.128c1.484 0 2.698 1.251 2.698 2.78v40.022c0 1.529-1.214 2.78-2.698 2.78z" stroke="#2D3033" stroke-width="2" fill="#F0F3F7" stroke-linejoin="round"/><path d="M224.611 137.753h-15.398c-.704 0-1.281-.607-1.281-1.348v-26.63c0-.74.577-1.347 1.281-1.347h15.398c.704 0 1.279.607 1.279 1.348v26.63c0 .74-.575 1.347-1.279 1.347z" stroke="#2D3033" stroke-width="2" fill="#F0F3F7" stroke-linejoin="round"/><path d="M234.877 92.34a3.483 3.483 0 10-6.967 0 3.484 3.484 0 006.967 0" fill="#FF3A49"/><path d="M220.21 108.34a3.418 3.418 0 10-6.837 0 3.42 3.42 0 006.838 0" fill="#00B4F0"/><path d="M263.574 127.126v9.786" stroke="#2D3033" stroke-width="2" stroke-linecap="square"/><path d="M97.152 128.788a5.757 5.757 0 110-11.515 5.757 5.757 0 010 11.515z" fill="#2D3033"/><path d="M68.77 103.386c6.279-8.918 16.646-14.75 28.382-14.75 11.735 0 22.102 5.831 28.381 14.749" stroke="#000" stroke-width="2" stroke-linecap="round"/><path d="M136.047 95.728c-8.645-12.16-22.838-20.1-38.895-20.1-16.057 0-30.25 7.941-38.896 20.101M79.888 111.483c3.776-5.49 10.098-9.092 17.264-9.092 7.165 0 13.488 3.602 17.264 9.09" stroke="#000" stroke-width="2" stroke-linecap="round"/><path d="M117.219 111.311a2.887 2.887 0 11-5.774 0 2.887 2.887 0 015.774 0" fill="#FF3A49"/><path d="M83.474 111.311a3.046 3.046 0 11-6.093 0 3.046 3.046 0 016.093 0" fill="#00B4F0"/><path d="M72.268 103.445a3.01 3.01 0 11-6.02 0 3.01 3.01 0 016.02 0" fill="#FF3A49"/><path d="M127.998 103.445a2.667 2.667 0 11-5.333 0 2.667 2.667 0 015.333 0" fill="#00B4F0"/><path d="M138.9 95.494a2.811 2.811 0 11-5.623 0 2.811 2.811 0 015.622 0" fill="#FF3A49"/><path d="M60.593 95.494a2.823 2.823 0 11-5.646 0 2.823 2.823 0 015.646 0" fill="#00B4F0"/><path d="M399.182 132.398c-7.9-5.505-17.158-14.83-17.158-28.292v-21.78s9.09-11.007 28.162-11.007v67.04s28.163-11.063 28.163-34.545V82.151s-4.86-5.848-14.929-8.997" stroke="#000" stroke-width="2" stroke-linecap="round" stroke-linejoin="round"/><path d="M401.804 131.32a4.246 4.246 0 10-8.492.002 4.246 4.246 0 008.492-.001" fill="#00B4F0"/><path d="M425.602 72.474a4.246 4.246 0 10-8.492 0 4.246 4.246 0 008.492 0" fill="#FF3A49"/><g><path d="M567.905 144.036h-33.738c-3.267 0-5.94-2.673-5.94-5.94v-65.86c0-3.267 2.673-5.94 5.94-5.94h33.738c3.267 0 5.94 2.673 5.94 5.94v65.86c0 3.267-2.673 5.94-5.94 5.94z" stroke="#000" stroke-width="2" stroke-linejoin="round"/><path d="M550.442 137.342a5.081 5.081 0 11.001-10.163 5.081 5.081 0 010 10.163z" fill="#2D3033"/><path d="M550.428 111.758l-11.853-11.852c-2.908-2.91-2.908-7.642 0-10.552a7.413 7.413 0 015.276-2.185c1.993 0 3.866.776 5.276 2.185l1.301 1.303 1.302-1.303a7.413 7.413 0 015.276-2.185c1.993 0 3.866.776 5.276 2.185a7.415 7.415 0 012.184 5.276 7.411 7.411 0 01-2.184 5.276l-11.854 11.852z" stroke="#000" stroke-width="2"/><path d="M553.27 111.59a2.828 2.828 0 11-5.656 0 2.828 2.828 0 015.656 0" fill="#FF3A49"/></g><path d="M68.504 180.584l-1.792-2.968c-.14.014-.294.014-.448.014H63.94v2.954h-1.652v-9.8h3.976c2.506 0 3.948 1.218 3.948 3.346 0 1.568-.728 2.674-2.03 3.178l2.198 3.276h-1.876zm-4.564-4.438h2.324c1.512 0 2.38-.644 2.38-1.974 0-1.288-.868-1.904-2.38-1.904H63.94v3.878zm16.8-3.878h-5.348v2.646h4.788v1.484h-4.788v2.702h5.516v1.484H73.74v-9.8h7v1.484zm5.166 6.818h4.242v1.498h-5.894v-9.8h1.652v8.302zm8.806 1.498H93.06v-9.8h1.652v9.8zm10.234-2.212h-4.942l-.938 2.212h-1.722l4.326-9.8h1.694l4.284 9.8h-1.764l-.938-2.212zm-.63-1.47l-1.848-4.354-1.848 4.354h3.696zm5.964-6.118h4.256c2.03 0 3.29.924 3.29 2.45 0 1.106-.658 1.932-1.722 2.184 1.316.224 2.1 1.162 2.1 2.478 0 1.68-1.358 2.688-3.57 2.688h-4.354v-9.8zm1.652 1.47v2.59h2.52c1.05 0 1.68-.49 1.68-1.316 0-.826-.63-1.274-1.68-1.274h-2.52zm0 4.046v2.814h2.52c1.288 0 2.058-.504 2.058-1.428 0-.868-.77-1.386-2.058-1.386h-2.52zm11.214 2.786h4.242v1.498h-5.894v-9.8h1.652v8.302zm14.154-6.818h-5.348v2.646h4.788v1.484h-4.788v2.702h5.516v1.484H130.3v-9.8h7v1.484zM214.395 180.584l-1.792-2.968c-.14.014-.294.014-.448.014h-2.324v2.954h-1.652v-9.8h3.976c2.506 0 3.948 1.218 3.948 3.346 0 1.568-.728 2.674-2.03 3.178l2.198 3.276h-1.876zm-4.564-4.438h2.324c1.512 0 2.38-.644 2.38-1.974 0-1.288-.868-1.904-2.38-1.904h-2.324v3.878zm16.8-3.878h-5.348v2.646h4.788v1.484h-4.788v2.702h5.516v1.484h-7.168v-9.8h7v1.484zm6.734-1.554c1.274 0 2.52.406 3.43 1.008l-.686 1.456c-1.064-.644-2.128-.91-2.87-.91-.966 0-1.596.364-1.596 1.022 0 2.142 5.292.994 5.278 4.522 0 1.75-1.54 2.828-3.696 2.828-1.54 0-2.996-.63-4.004-1.554l.714-1.428c1.008.924 2.268 1.428 3.318 1.428 1.148 0 1.834-.434 1.834-1.19 0-2.184-5.292-.966-5.292-4.452 0-1.68 1.442-2.73 3.57-2.73zm6.818.07h3.906c2.464 0 3.878 1.218 3.878 3.346 0 2.212-1.414 3.5-3.878 3.5h-2.254v2.954h-1.652v-9.8zm1.652 1.484v3.878h2.184c1.512 0 2.366-.644 2.366-1.974 0-1.288-.854-1.904-2.366-1.904h-2.184zm13.482-1.526c2.926 0 5.194 2.142 5.194 4.942 0 2.8-2.268 4.97-5.194 4.97s-5.194-2.17-5.194-4.97c0-2.814 2.268-4.942 5.194-4.942zm.014 1.484c-1.932 0-3.528 1.512-3.528 3.458 0 1.946 1.61 3.486 3.528 3.486a3.477 3.477 0 003.486-3.486c0-1.946-1.568-3.458-3.486-3.458zm16.772 8.358h-1.624l-5.222-7.028v7.028h-1.652v-9.8h1.624l5.25 7.042v-7.042h1.624v9.8zm7.14-9.87c1.274 0 2.52.406 3.43 1.008l-.686 1.456c-1.064-.644-2.128-.91-2.87-.91-.966 0-1.596.364-1.596 1.022 0 2.142 5.292.994 5.278 4.522 0 1.75-1.54 2.828-3.696 2.828-1.54 0-2.996-.63-4.004-1.554l.714-1.428c1.008.924 2.268 1.428 3.318 1.428 1.148 0 1.834-.434 1.834-1.19 0-2.184-5.292-.966-5.292-4.452 0-1.68 1.442-2.73 3.57-2.73zm8.47 9.87h-1.652v-9.8h1.652v9.8zm8.274 0h-1.708l-3.906-9.8h1.778l3.024 7.966 3.052-7.966h1.722l-3.962 9.8zm13.622-8.316h-5.348v2.646h4.788v1.484h-4.788v2.702h5.516v1.484h-7.168v-9.8h7v1.484zM383.898 170.714c1.274 0 2.52.406 3.43 1.008l-.686 1.456c-1.064-.644-2.128-.91-2.87-.91-.966 0-1.596.364-1.596 1.022 0 2.142 5.292.994 5.278 4.522 0 1.75-1.54 2.828-3.696 2.828-1.54 0-2.996-.63-4.004-1.554l.714-1.428c1.008.924 2.268 1.428 3.318 1.428 1.148 0 1.834-.434 1.834-1.19 0-2.184-5.292-.966-5.292-4.452 0-1.68 1.442-2.73 3.57-2.73zm13.818 1.554h-5.348v2.646h4.788v1.484h-4.788v2.702h5.516v1.484h-7.168v-9.8h7v1.484zm7.854-1.526c1.386 0 2.772.574 3.724 1.512l-.966 1.204c-.714-.77-1.736-1.246-2.73-1.246-1.96 0-3.5 1.512-3.5 3.444s1.54 3.458 3.5 3.458c.98 0 1.988-.448 2.73-1.162l.98 1.092c-.994.98-2.408 1.61-3.794 1.61-2.87 0-5.096-2.17-5.096-4.984 0-2.786 2.254-4.928 5.152-4.928zm15.078.042v5.74c0 2.562-1.61 4.13-4.256 4.13s-4.27-1.568-4.27-4.13v-5.74h1.652v5.74c0 1.652 1.022 2.646 2.632 2.646 1.596 0 2.59-.98 2.59-2.646v-5.74h1.652zm9.912 9.8l-1.792-2.968c-.14.014-.294.014-.448.014h-2.324v2.954h-1.652v-9.8h3.976c2.506 0 3.948 1.218 3.948 3.346 0 1.568-.728 2.674-2.03 3.178l2.198 3.276h-1.876zm-4.564-4.438h2.324c1.512 0 2.38-.644 2.38-1.974 0-1.288-.868-1.904-2.38-1.904h-2.324v3.878zm16.8-3.878h-5.348v2.646h4.788v1.484h-4.788v2.702h5.516v1.484h-7.168v-9.8h7v1.484zM515.964 172.268h-5.348v2.646h4.788v1.484h-4.788v2.702h5.516v1.484h-7.168v-9.8h7v1.484zm12.012 8.316h-1.624l-5.222-7.028v7.028h-1.652v-9.8h1.624l5.25 7.042v-7.042h1.624v9.8zm10.626-4.816h1.442v3.612c-.994.756-2.464 1.274-3.808 1.274-2.898 0-5.152-2.17-5.152-4.97s2.282-4.942 5.25-4.942c1.4 0 2.8.532 3.766 1.372l-.938 1.218a4.26 4.26 0 00-2.828-1.12c-2.002 0-3.57 1.526-3.57 3.472 0 1.96 1.582 3.486 3.584 3.486.728 0 1.554-.252 2.254-.672v-2.73zm11.438 2.604h-4.942l-.938 2.212h-1.722l4.326-9.8h1.694l4.284 9.8h-1.764l-.938-2.212zm-.63-1.47l-1.848-4.354-1.848 4.354h3.696zm12.418-1.134h1.442v3.612c-.994.756-2.464 1.274-3.808 1.274-2.898 0-5.152-2.17-5.152-4.97s2.282-4.942 5.25-4.942c1.4 0 2.8.532 3.766 1.372l-.938 1.218a4.26 4.26 0 00-2.828-1.12c-2.002 0-3.57 1.526-3.57 3.472 0 1.96 1.582 3.486 3.584 3.486.728 0 1.554-.252 2.254-.672v-2.73zm6.762 4.816h-1.652v-9.8h1.652v9.8zm12.404 0h-1.624l-5.222-7.028v7.028h-1.652v-9.8h1.624l5.25 7.042v-7.042h1.624v9.8zm10.626-4.816h1.442v3.612c-.994.756-2.464 1.274-3.808 1.274-2.898 0-5.152-2.17-5.152-4.97s2.282-4.942 5.25-4.942c1.4 0 2.8.532 3.766 1.372l-.938 1.218a4.26 4.26 0 00-2.828-1.12c-2.002 0-3.57 1.526-3.57 3.472 0 1.96 1.582 3.486 3.584 3.486.728 0 1.554-.252 2.254-.672v-2.73z" fill="#2D3033"/></g></svg>