<?xml version="1.0" encoding="UTF-8"?>
<svg width="650px" height="250px" viewBox="0 0 650 250" version="1.1" xmlns="http://www.w3.org/2000/svg" xmlns:xlink="http://www.w3.org/1999/xlink">
    <!-- Generator: Sketch 48.2 (47327) - http://www.bohemiancoding.com/sketch -->
    <title>pwa-parts</title>
    <desc>Created with Sketch.</desc>
    <defs></defs>
    <g id="Pilar-Pages" stroke="none" stroke-width="1" fill="none" fill-rule="evenodd">
        <g id="pwa-parts">
            <rect id="Rectangle-6" fill="#F0F3F7" x="0" y="0" width="650" height="250" rx="4"></rect>
            <path d="M258.103621,136.594759 L272.594874,136.594759" id="Stroke-1" stroke="#2D3033" stroke-width="2" stroke-linecap="round" stroke-linejoin="round"></path>
            <path d="M295.991889,126.997595 L235.74379,126.997595 C233.408254,126.997595 231.495573,125.051041 231.495573,122.67016 L231.495573,79.4701119 C231.495573,77.0919622 233.408254,75.1432234 235.74379,75.1432234 L295.991889,75.1432234 C298.327971,75.1432234 300.240653,77.0919622 300.240653,79.4701119 L300.240653,122.67016 C300.240653,125.051041 298.327971,126.997595 295.991889,126.997595 Z" id="Stroke-3" stroke="#2D3033" stroke-width="2" stroke-linejoin="round"></path>
            <path d="M243.588715,137.752899 L219.460848,137.752899 C217.9743,137.752899 216.762552,136.501816 216.762552,134.972654 L216.762552,94.951121 C216.762552,93.4219593 217.9743,92.171423 219.460848,92.171423 L243.588715,92.171423 C245.072532,92.171423 246.287011,93.4219593 246.287011,94.951121 L246.287011,134.972654 C246.287011,136.501816 245.072532,137.752899 243.588715,137.752899 Z" id="Stroke-9" stroke="#2D3033" stroke-width="2" fill="#F0F3F7" stroke-linejoin="round"></path>
            <path d="M224.611127,137.752899 L209.212976,137.752899 C208.508764,137.752899 207.931846,137.145932 207.931846,136.405117 L207.931846,109.775631 C207.931846,109.035362 208.508764,108.427849 209.212976,108.427849 L224.611127,108.427849 C225.315339,108.427849 225.889526,109.035362 225.889526,109.775631 L225.889526,136.405117 C225.889526,137.145932 225.315339,137.752899 224.611127,137.752899 Z" id="Stroke-15" stroke="#2D3033" stroke-width="2" fill="#F0F3F7" stroke-linejoin="round"></path>
            <path d="M234.877349,92.3395871 C234.877349,90.4146996 233.31823,88.8560781 231.39384,88.8560781 C229.471441,88.8560781 227.910331,90.4146996 227.910331,92.3395871 C227.910331,94.263977 229.471441,95.823096 231.39384,95.823096 C233.31823,95.823096 234.877349,94.263977 234.877349,92.3395871" id="Fill-17" fill="#FF3A49"></path>
            <path d="M220.210905,108.339976 C220.210905,106.450728 218.680653,104.920964 216.791893,104.920964 C214.905087,104.920964 213.372881,106.450728 213.372881,108.339976 C213.372881,110.228736 214.905087,111.758988 216.791893,111.758988 C218.680653,111.758988 220.210905,110.228736 220.210905,108.339976" id="Fill-17-Copy" fill="#00B4F0"></path>
            <path d="M263.574111,127.126231 L263.574111,136.911524" id="Line-2" stroke="#2D3033" stroke-width="2" stroke-linecap="square"></path>
            <g id="Page-1" transform="translate(54.332852, 75.311015)">
                <path d="M42.8192644,53.4765878 C39.6397859,53.4765878 37.0621207,50.8989226 37.0621207,47.7194441 C37.0621207,44.5399655 39.6397859,41.9623003 42.8192644,41.9623003 C45.998743,41.9623003 48.5764082,44.5399655 48.5764082,47.7194441 C48.5764082,50.8989226 45.998743,53.4765878 42.8192644,53.4765878 Z" id="Fill-1" fill="#2D3033"></path>
                <path d="M14.4364809,28.0749767 C20.7161465,19.156876 31.083011,13.3244457 42.8194545,13.3244457 C54.5546311,13.3244457 64.9214955,19.1562425 71.2005277,28.0737097" id="Stroke-3" stroke="#000000" stroke-width="2" stroke-linecap="round"></path>
                <path d="M81.7138522,20.4169901 C73.0687805,8.25738335 58.8757099,0.317372387 42.8195812,0.317372387 C26.7621855,0.317372387 12.5697484,8.25801683 3.92340971,20.418257" id="Stroke-5" stroke="#000000" stroke-width="2" stroke-linecap="round"></path>
                <path d="M25.5551568,36.1716467 C29.3306846,30.681928 35.6527932,27.0799731 42.8193278,27.0799731 C49.9845954,27.0799731 56.3073375,30.681928 60.0828653,36.1703798" id="Stroke-9" stroke="#000000" stroke-width="2" stroke-linecap="round"></path>
                <path d="M62.8859725,36.0002065 C62.8859725,37.5945153 61.5934354,38.8870524 59.9991266,38.8870524 C58.4048179,38.8870524 57.1122808,37.5945153 57.1122808,36.0002065 C57.1122808,34.4058978 58.4048179,33.1133606 59.9991266,33.1133606 C61.5934354,33.1133606 62.8859725,34.4058978 62.8859725,36.0002065" id="Fill-1-Copy" fill="#FF3A49"></path>
                <path d="M29.1411845,36.0002065 C29.1411845,37.6826065 27.77723,39.0465609 26.09483,39.0465609 C24.41243,39.0465609 23.0484756,37.6826065 23.0484756,36.0002065 C23.0484756,34.3178065 24.41243,32.9538521 26.09483,32.9538521 C27.77723,32.9538521 29.1411845,34.3178065 29.1411845,36.0002065" id="Fill-1-Copy-2" fill="#00B4F0"></path>
                <path d="M17.9347326,28.1336019 C17.9347326,29.7958716 16.5870982,31.143506 14.9248285,31.143506 C13.2625588,31.143506 11.9149243,29.7958716 11.9149243,28.1336019 C11.9149243,26.4713322 13.2625588,25.1236977 14.9248285,25.1236977 C16.5870982,25.1236977 17.9347326,26.4713322 17.9347326,28.1336019" id="Fill-1-Copy-3" fill="#FF3A49"></path>
                <path d="M73.6655645,28.1336019 C73.6655645,29.6063824 72.4715526,30.8003943 70.9987721,30.8003943 C69.5259915,30.8003943 68.3319797,29.6063824 68.3319797,28.1336019 C68.3319797,26.6608213 69.5259915,25.4668095 70.9987721,25.4668095 C72.4715526,25.4668095 73.6655645,26.6608213 73.6655645,28.1336019" id="Fill-1-Copy-4" fill="#00B4F0"></path>
                <path d="M84.5664207,20.1831931 C84.5664207,21.73571 83.3077649,22.9943657 81.755248,22.9943657 C80.202731,22.9943657 78.9440753,21.73571 78.9440753,20.1831931 C78.9440753,18.6306761 80.202731,17.3720204 81.755248,17.3720204 C83.3077649,17.3720204 84.5664207,18.6306761 84.5664207,20.1831931" id="Fill-1-Copy-5" fill="#FF3A49"></path>
                <path d="M6.26034122,20.1831931 C6.26034122,21.7421707 4.99644769,23.0060643 3.43747002,23.0060643 C1.87849236,23.0060643 0.614598827,21.7421707 0.614598827,20.1831931 C0.614598827,18.6242154 1.87849236,17.3603219 3.43747002,17.3603219 C4.99644769,17.3603219 6.26034122,18.6242154 6.26034122,20.1831931" id="Fill-1-Copy-6" fill="#00B4F0"></path>
            </g>
            <path d="M399.181964,132.398013 C391.281962,126.893037 382.023772,117.568785 382.023772,104.106144 L382.023772,82.3258547 C382.023772,82.3258547 391.114568,71.3187023 410.186317,71.3187023 L410.186317,138.358704 C410.186317,138.358704 438.349422,127.295567 438.349422,103.814463 L438.349422,82.1506226 C438.349422,82.1506226 433.48883,76.3030204 423.419981,73.1538808" id="Stroke-1" stroke="#000000" stroke-width="2" stroke-linecap="round" stroke-linejoin="round"></path>
            <path d="M401.803503,131.320923 C401.803503,128.976844 399.902823,127.075603 397.558183,127.075603 C395.212984,127.075603 393.312304,128.976844 393.312304,131.320923 C393.312304,133.665563 395.212984,135.566803 397.558183,135.566803 C399.902823,135.566803 401.803503,133.665563 401.803503,131.320923" id="Fill-3" fill="#00B4F0"></path>
            <path d="M425.601649,72.4735547 C425.601649,70.1289154 423.700408,68.2282347 421.356329,68.2282347 C419.01113,68.2282347 417.110449,70.1289154 417.110449,72.4735547 C417.110449,74.8181941 419.01113,76.7194346 421.356329,76.7194346 C423.700408,76.7194346 425.601649,74.8181941 425.601649,72.4735547" id="Fill-5" fill="#FF3A49"></path>
            <g id="Page-1" transform="translate(527.930276, 66.000000)">
                <path d="M39.9751273,78.0356145 L6.23711825,78.0356145 C2.97011854,78.0356145 0.297118774,75.3626148 0.297118774,72.0956151 L0.297118774,6.23646485 C0.297118774,2.96946514 2.97011854,0.296465374 6.23711825,0.296465374 L39.9751273,0.296465374 C43.242127,0.296465374 45.9151268,2.96946514 45.9151268,6.23646485 L45.9151268,72.0956151 C45.9151268,75.3626148 43.242127,78.0356145 39.9751273,78.0356145 Z" id="Stroke-1" stroke="#000000" stroke-width="2" stroke-linejoin="round"></path>
                <path d="M22.5121822,71.3422677 C19.7060565,71.3422677 17.431251,69.0667364 17.431251,66.2613365 C17.431251,63.4552107 19.7060565,61.1804052 22.5121822,61.1804052 C25.318308,61.1804052 27.5931135,63.4552107 27.5931135,66.2613365 C27.5931135,69.0667364 25.318308,71.3422677 22.5121822,71.3422677 Z" id="Fill-3" fill="#2D3033"></path>
                <path d="M22.4980477,45.7583108 L10.6447787,33.9056358 C7.736555,30.9968181 7.736555,26.2644205 10.6447787,23.3544147 C12.0537466,21.9454469 13.9278165,21.1690889 15.9206863,21.1690889 C17.9135561,21.1690889 19.7870319,21.9454469 21.1965938,23.3544147 L22.4980477,24.6570566 L23.8000956,23.3544147 C25.2090635,21.9454469 27.0831333,21.1690889 29.0760031,21.1690889 C31.068279,21.1690889 32.9417548,21.9454469 34.3513167,23.3544147 C35.7602845,24.7639766 36.5360485,26.6380465 36.5360485,28.6303223 C36.5360485,30.6231921 35.7602845,32.4966679 34.3513167,33.9056358 L22.4980477,45.7583108 Z" id="Stroke-5" stroke="#000000" stroke-width="2"></path>
                <path d="M25.3399808,45.5902802 C25.3399808,47.151629 24.073935,48.4180788 22.5121822,48.4180788 C20.9504295,48.4180788 19.6843837,47.151629 19.6843837,45.5902802 C19.6843837,44.0285275 20.9504295,42.7624817 22.5121822,42.7624817 C24.073935,42.7624817 25.3399808,44.0285275 25.3399808,45.5902802" id="Fill-3-Copy" fill="#FF3A49"></path>
            </g>
            <path d="M68.504,180.583795 L66.712,177.615795 C66.572,177.629795 66.418,177.629795 66.264,177.629795 L63.94,177.629795 L63.94,180.583795 L62.288,180.583795 L62.288,170.783795 L66.264,170.783795 C68.77,170.783795 70.212,172.001795 70.212,174.129795 C70.212,175.697795 69.484,176.803795 68.182,177.307795 L70.38,180.583795 L68.504,180.583795 Z M63.94,176.145795 L66.264,176.145795 C67.776,176.145795 68.644,175.501795 68.644,174.171795 C68.644,172.883795 67.776,172.267795 66.264,172.267795 L63.94,172.267795 L63.94,176.145795 Z M80.74,172.267795 L75.392,172.267795 L75.392,174.913795 L80.18,174.913795 L80.18,176.397795 L75.392,176.397795 L75.392,179.099795 L80.908,179.099795 L80.908,180.583795 L73.74,180.583795 L73.74,170.783795 L80.74,170.783795 L80.74,172.267795 Z M85.9060001,179.085795 L90.1480001,179.085795 L90.1480001,180.583795 L84.2540001,180.583795 L84.2540001,170.783795 L85.9060001,170.783795 L85.9060001,179.085795 Z M94.7120001,180.583795 L93.0600001,180.583795 L93.0600001,170.783795 L94.7120001,170.783795 L94.7120001,180.583795 Z M104.946,178.371795 L100.004,178.371795 L99.0660002,180.583795 L97.3440002,180.583795 L101.67,170.783795 L103.364,170.783795 L107.648,180.583795 L105.884,180.583795 L104.946,178.371795 Z M104.316,176.901795 L102.468,172.547795 L100.62,176.901795 L104.316,176.901795 Z M110.28,170.783795 L114.536,170.783795 C116.566,170.783795 117.826,171.707795 117.826,173.233795 C117.826,174.339795 117.168,175.165795 116.104,175.417795 C117.42,175.641795 118.204,176.579795 118.204,177.895795 C118.204,179.575795 116.846,180.583795 114.634,180.583795 L110.28,180.583795 L110.28,170.783795 Z M111.932,172.253795 L111.932,174.843795 L114.452,174.843795 C115.502,174.843795 116.132,174.353795 116.132,173.527795 C116.132,172.701795 115.502,172.253795 114.452,172.253795 L111.932,172.253795 Z M111.932,176.299795 L111.932,179.113795 L114.452,179.113795 C115.74,179.113795 116.51,178.609795 116.51,177.685795 C116.51,176.817795 115.74,176.299795 114.452,176.299795 L111.932,176.299795 Z M123.146,179.085795 L127.388,179.085795 L127.388,180.583795 L121.494,180.583795 L121.494,170.783795 L123.146,170.783795 L123.146,179.085795 Z M137.3,172.267795 L131.952,172.267795 L131.952,174.913795 L136.74,174.913795 L136.74,176.397795 L131.952,176.397795 L131.952,179.099795 L137.468,179.099795 L137.468,180.583795 L130.3,180.583795 L130.3,170.783795 L137.3,170.783795 L137.3,172.267795 Z" id="Reliable" fill="#2D3033"></path>
            <path d="M214.394707,180.583795 L212.602707,177.615795 C212.462707,177.629795 212.308707,177.629795 212.154707,177.629795 L209.830707,177.629795 L209.830707,180.583795 L208.178707,180.583795 L208.178707,170.783795 L212.154707,170.783795 C214.660707,170.783795 216.102707,172.001795 216.102707,174.129795 C216.102707,175.697795 215.374707,176.803795 214.072707,177.307795 L216.270707,180.583795 L214.394707,180.583795 Z M209.830707,176.145795 L212.154707,176.145795 C213.666707,176.145795 214.534707,175.501795 214.534707,174.171795 C214.534707,172.883795 213.666707,172.267795 212.154707,172.267795 L209.830707,172.267795 L209.830707,176.145795 Z M226.630707,172.267795 L221.282707,172.267795 L221.282707,174.913795 L226.070707,174.913795 L226.070707,176.397795 L221.282707,176.397795 L221.282707,179.099795 L226.798707,179.099795 L226.798707,180.583795 L219.630707,180.583795 L219.630707,170.783795 L226.630707,170.783795 L226.630707,172.267795 Z M233.364707,170.713795 C234.638707,170.713795 235.884707,171.119795 236.794707,171.721795 L236.108707,173.177795 C235.044707,172.533795 233.980707,172.267795 233.238707,172.267795 C232.272707,172.267795 231.642707,172.631795 231.642707,173.289795 C231.642707,175.431795 236.934707,174.283795 236.920707,177.811795 C236.920707,179.561795 235.380707,180.639795 233.224707,180.639795 C231.684707,180.639795 230.228707,180.009795 229.220707,179.085795 L229.934707,177.657795 C230.942707,178.581795 232.202707,179.085795 233.252707,179.085795 C234.400707,179.085795 235.086707,178.651795 235.086707,177.895795 C235.086707,175.711795 229.794707,176.929795 229.794707,173.443795 C229.794707,171.763795 231.236707,170.713795 233.364707,170.713795 Z M240.182707,170.783795 L244.088707,170.783795 C246.552707,170.783795 247.966707,172.001795 247.966707,174.129795 C247.966707,176.341795 246.552707,177.629795 244.088707,177.629795 L241.834707,177.629795 L241.834707,180.583795 L240.182707,180.583795 L240.182707,170.783795 Z M241.834707,172.267795 L241.834707,176.145795 L244.018707,176.145795 C245.530707,176.145795 246.384707,175.501795 246.384707,174.171795 C246.384707,172.883795 245.530707,172.267795 244.018707,172.267795 L241.834707,172.267795 Z M255.316707,170.741795 C258.242707,170.741795 260.510707,172.883795 260.510707,175.683795 C260.510707,178.483795 258.242707,180.653795 255.316707,180.653795 C252.390707,180.653795 250.122707,178.483795 250.122707,175.683795 C250.122707,172.869795 252.390707,170.741795 255.316707,170.741795 Z M255.330707,172.225795 C253.398707,172.225795 251.802707,173.737795 251.802707,175.683795 C251.802707,177.629795 253.412707,179.169795 255.330707,179.169795 C257.248707,179.169795 258.816707,177.629795 258.816707,175.683795 C258.816707,173.737795 257.248707,172.225795 255.330707,172.225795 Z M272.102707,180.583795 L270.478707,180.583795 L265.256707,173.555795 L265.256707,180.583795 L263.604707,180.583795 L263.604707,170.783795 L265.228707,170.783795 L270.478707,177.825795 L270.478707,170.783795 L272.102707,170.783795 L272.102707,180.583795 Z M279.242707,170.713795 C280.516707,170.713795 281.762707,171.119795 282.672707,171.721795 L281.986707,173.177795 C280.922707,172.533795 279.858707,172.267795 279.116707,172.267795 C278.150707,172.267795 277.520707,172.631795 277.520707,173.289795 C277.520707,175.431795 282.812707,174.283795 282.798707,177.811795 C282.798707,179.561795 281.258707,180.639795 279.102707,180.639795 C277.562707,180.639795 276.106707,180.009795 275.098707,179.085795 L275.812707,177.657795 C276.820707,178.581795 278.080707,179.085795 279.130707,179.085795 C280.278707,179.085795 280.964707,178.651795 280.964707,177.895795 C280.964707,175.711795 275.672707,176.929795 275.672707,173.443795 C275.672707,171.763795 277.114707,170.713795 279.242707,170.713795 Z M287.712707,180.583795 L286.060707,180.583795 L286.060707,170.783795 L287.712707,170.783795 L287.712707,180.583795 Z M295.986707,180.583795 L294.278707,180.583795 L290.372707,170.783795 L292.150707,170.783795 L295.174707,178.749795 L298.226707,170.783795 L299.948707,170.783795 L295.986707,180.583795 Z M309.608707,172.267795 L304.260707,172.267795 L304.260707,174.913795 L309.048707,174.913795 L309.048707,176.397795 L304.260707,176.397795 L304.260707,179.099795 L309.776707,179.099795 L309.776707,180.583795 L302.608707,180.583795 L302.608707,170.783795 L309.608707,170.783795 L309.608707,172.267795 Z" id="responsive" fill="#2D3033"></path>
            <path d="M383.898138,170.713795 C385.172138,170.713795 386.418138,171.119795 387.328138,171.721795 L386.642138,173.177795 C385.578138,172.533795 384.514138,172.267795 383.772138,172.267795 C382.806138,172.267795 382.176138,172.631795 382.176138,173.289795 C382.176138,175.431795 387.468138,174.283795 387.454138,177.811795 C387.454138,179.561795 385.914138,180.639795 383.758138,180.639795 C382.218138,180.639795 380.762138,180.009795 379.754138,179.085795 L380.468138,177.657795 C381.476138,178.581795 382.736138,179.085795 383.786138,179.085795 C384.934138,179.085795 385.620138,178.651795 385.620138,177.895795 C385.620138,175.711795 380.328138,176.929795 380.328138,173.443795 C380.328138,171.763795 381.770138,170.713795 383.898138,170.713795 Z M397.716138,172.267795 L392.368138,172.267795 L392.368138,174.913795 L397.156138,174.913795 L397.156138,176.397795 L392.368138,176.397795 L392.368138,179.099795 L397.884138,179.099795 L397.884138,180.583795 L390.716138,180.583795 L390.716138,170.783795 L397.716138,170.783795 L397.716138,172.267795 Z M405.570138,170.741795 C406.956138,170.741795 408.342138,171.315795 409.294138,172.253795 L408.328138,173.457795 C407.614138,172.687795 406.592138,172.211795 405.598138,172.211795 C403.638138,172.211795 402.098138,173.723795 402.098138,175.655795 C402.098138,177.587795 403.638138,179.113795 405.598138,179.113795 C406.578138,179.113795 407.586138,178.665795 408.328138,177.951795 L409.308138,179.043795 C408.314138,180.023795 406.900138,180.653795 405.514138,180.653795 C402.644138,180.653795 400.418138,178.483795 400.418138,175.669795 C400.418138,172.883795 402.672138,170.741795 405.570138,170.741795 Z M420.648138,170.783795 L420.648138,176.523795 C420.648138,179.085795 419.038138,180.653795 416.392138,180.653795 C413.746138,180.653795 412.122138,179.085795 412.122138,176.523795 L412.122138,170.783795 L413.774138,170.783795 L413.774138,176.523795 C413.774138,178.175795 414.796138,179.169795 416.406138,179.169795 C418.002138,179.169795 418.996138,178.189795 418.996138,176.523795 L418.996138,170.783795 L420.648138,170.783795 Z M430.560138,180.583795 L428.768138,177.615795 C428.628138,177.629795 428.474138,177.629795 428.320138,177.629795 L425.996138,177.629795 L425.996138,180.583795 L424.344138,180.583795 L424.344138,170.783795 L428.320138,170.783795 C430.826138,170.783795 432.268138,172.001795 432.268138,174.129795 C432.268138,175.697795 431.540138,176.803795 430.238138,177.307795 L432.436138,180.583795 L430.560138,180.583795 Z M425.996138,176.145795 L428.320138,176.145795 C429.832138,176.145795 430.700138,175.501795 430.700138,174.171795 C430.700138,172.883795 429.832138,172.267795 428.320138,172.267795 L425.996138,172.267795 L425.996138,176.145795 Z M442.796138,172.267795 L437.448138,172.267795 L437.448138,174.913795 L442.236138,174.913795 L442.236138,176.397795 L437.448138,176.397795 L437.448138,179.099795 L442.964138,179.099795 L442.964138,180.583795 L435.796138,180.583795 L435.796138,170.783795 L442.796138,170.783795 L442.796138,172.267795 Z" id="secure" fill="#2D3033"></path>
            <path d="M515.964266,172.267795 L510.616266,172.267795 L510.616266,174.913795 L515.404266,174.913795 L515.404266,176.397795 L510.616266,176.397795 L510.616266,179.099795 L516.132266,179.099795 L516.132266,180.583795 L508.964266,180.583795 L508.964266,170.783795 L515.964266,170.783795 L515.964266,172.267795 Z M527.976266,180.583795 L526.352266,180.583795 L521.130266,173.555795 L521.130266,180.583795 L519.478266,180.583795 L519.478266,170.783795 L521.102266,170.783795 L526.352266,177.825795 L526.352266,170.783795 L527.976266,170.783795 L527.976266,180.583795 Z M538.602266,175.767795 L540.044266,175.767795 L540.044266,179.379795 C539.050266,180.135795 537.580266,180.653795 536.236266,180.653795 C533.338266,180.653795 531.084266,178.483795 531.084266,175.683795 C531.084266,172.883795 533.366266,170.741795 536.334266,170.741795 C537.734266,170.741795 539.134266,171.273795 540.100266,172.113795 L539.162266,173.331795 C538.406266,172.631795 537.356266,172.211795 536.334266,172.211795 C534.332266,172.211795 532.764266,173.737795 532.764266,175.683795 C532.764266,177.643795 534.346266,179.169795 536.348266,179.169795 C537.076266,179.169795 537.902266,178.917795 538.602266,178.497795 L538.602266,175.767795 Z M550.040266,178.371795 L545.098266,178.371795 L544.160266,180.583795 L542.438266,180.583795 L546.764266,170.783795 L548.458266,170.783795 L552.742266,180.583795 L550.978266,180.583795 L550.040266,178.371795 Z M549.410266,176.901795 L547.562266,172.547795 L545.714266,176.901795 L549.410266,176.901795 Z M561.828266,175.767795 L563.270266,175.767795 L563.270266,179.379795 C562.276266,180.135795 560.806266,180.653795 559.462266,180.653795 C556.564266,180.653795 554.310266,178.483795 554.310266,175.683795 C554.310266,172.883795 556.592266,170.741795 559.560266,170.741795 C560.960266,170.741795 562.360266,171.273795 563.326266,172.113795 L562.388266,173.331795 C561.632266,172.631795 560.582266,172.211795 559.560266,172.211795 C557.558266,172.211795 555.990266,173.737795 555.990266,175.683795 C555.990266,177.643795 557.572266,179.169795 559.574266,179.169795 C560.302266,179.169795 561.128266,178.917795 561.828266,178.497795 L561.828266,175.767795 Z M568.590266,180.583795 L566.938266,180.583795 L566.938266,170.783795 L568.590266,170.783795 L568.590266,180.583795 Z M580.994266,180.583795 L579.370266,180.583795 L574.148266,173.555795 L574.148266,180.583795 L572.496266,180.583795 L572.496266,170.783795 L574.120266,170.783795 L579.370266,177.825795 L579.370266,170.783795 L580.994266,170.783795 L580.994266,180.583795 Z M591.620266,175.767795 L593.062266,175.767795 L593.062266,179.379795 C592.068266,180.135795 590.598266,180.653795 589.254266,180.653795 C586.356266,180.653795 584.102266,178.483795 584.102266,175.683795 C584.102266,172.883795 586.384266,170.741795 589.352266,170.741795 C590.752266,170.741795 592.152266,171.273795 593.118266,172.113795 L592.180266,173.331795 C591.424266,172.631795 590.374266,172.211795 589.352266,172.211795 C587.350266,172.211795 585.782266,173.737795 585.782266,175.683795 C585.782266,177.643795 587.364266,179.169795 589.366266,179.169795 C590.094266,179.169795 590.920266,178.917795 591.620266,178.497795 L591.620266,175.767795 Z" id="engaging" fill="#2D3033"></path>
        </g>
    </g>
</svg>