<svg width="506" height="506" fill="none" xmlns="http://www.w3.org/2000/svg"><path d="M456.382 259.991c0-26.921-33.714-52.433-85.402-68.254 11.928-52.683 6.627-94.596-16.732-108.015-5.384-3.148-11.68-4.64-18.555-4.64v18.473c3.81 0 6.875.745 9.443 2.153 11.265 6.461 16.153 31.063 12.342 62.705-.911 7.787-2.402 15.987-4.224 24.354-16.236-3.976-33.962-7.041-52.6-9.029-11.182-15.325-22.779-29.241-34.458-41.417 27.003-25.099 52.351-38.85 69.58-38.85V79c-22.779 0-52.599 16.235-82.751 44.399-30.151-27.998-59.971-44.068-82.751-44.068v18.472c17.147 0 42.577 13.668 69.581 38.601-11.597 12.176-23.194 26.009-34.211 41.334-18.72 1.988-36.446 5.052-52.682 9.111a249.941 249.941 0 01-4.307-24.021c-3.893-31.643.911-56.244 12.094-62.788 2.485-1.491 5.715-2.154 9.525-2.154V79.414c-6.958 0-13.253 1.491-18.72 4.639-23.276 13.419-28.495 55.25-16.484 107.766C83.548 207.723 50 233.153 50 259.991c0 26.921 33.713 52.434 85.401 68.255-11.928 52.682-6.626 94.596 16.733 108.015 5.384 3.148 11.679 4.639 18.637 4.639 22.78 0 52.6-16.235 82.751-44.399 30.152 27.998 59.972 44.068 82.751 44.068 6.958 0 13.253-1.491 18.72-4.639 23.277-13.419 28.495-55.25 16.484-107.767 51.357-15.821 84.905-41.333 84.905-68.172zm-107.85-55.25c-3.065 10.686-6.875 21.703-11.182 32.72-3.396-6.627-6.958-13.254-10.851-19.88-3.811-6.627-7.87-13.088-11.928-19.383 11.762 1.739 23.11 3.893 33.961 6.543zm-37.938 88.218c-6.461 11.183-13.087 21.785-19.962 31.643-12.343 1.076-24.85 1.656-37.441 1.656-12.508 0-25.016-.58-37.275-1.574-6.875-9.857-13.585-20.377-20.046-31.476-6.295-10.852-12.011-21.868-17.229-32.968 5.135-11.1 10.934-22.199 17.146-33.051 6.461-11.182 13.088-21.785 19.963-31.642 12.342-1.077 24.85-1.657 37.441-1.657 12.508 0 25.016.58 37.275 1.574 6.875 9.857 13.585 20.377 20.046 31.477 6.295 10.851 12.011 21.868 17.229 32.968-5.218 11.099-10.934 22.199-17.147 33.05zm26.756-10.768a355.06 355.06 0 0111.431 32.968c-10.851 2.65-22.282 4.887-34.128 6.626 4.059-6.378 8.118-12.922 11.928-19.631 3.811-6.627 7.373-13.337 10.769-19.963zm-83.993 88.383c-7.704-7.952-15.408-16.815-23.028-26.506 7.455.331 15.075.579 22.779.579 7.786 0 15.49-.165 23.028-.579a323.52 323.52 0 01-22.779 26.506zm-61.629-48.789c-11.762-1.739-23.11-3.893-33.961-6.544 3.064-10.685 6.875-21.702 11.182-32.719 3.396 6.627 6.958 13.254 10.851 19.88a547.508 547.508 0 0011.928 19.383zm61.214-172.376c7.704 7.952 15.407 16.815 23.028 26.506-7.455-.331-15.076-.58-22.779-.58-7.787 0-15.49.166-23.028.58a323.52 323.52 0 0122.779-26.506zm-61.297 48.789c-4.058 6.378-8.117 12.922-11.928 19.631-3.81 6.627-7.372 13.253-10.768 19.88a355.06 355.06 0 01-11.431-32.968 402.406 402.406 0 0134.127-6.543zm-74.964 103.707c-29.323-12.508-48.292-28.909-48.292-41.914 0-13.004 18.969-29.488 48.292-41.913 7.124-3.065 14.91-5.799 22.945-8.367 4.721 16.236 10.934 33.134 18.638 50.446-7.621 17.229-13.751 34.045-18.39 50.197-8.2-2.568-15.986-5.384-23.193-8.449zm44.565 118.369c-11.266-6.461-16.153-31.062-12.343-62.705.911-7.786 2.403-15.986 4.225-24.353 16.235 3.976 33.962 7.041 52.599 9.029 11.183 15.324 22.779 29.24 34.459 41.417-27.004 25.099-52.351 38.849-69.58 38.849-3.728-.083-6.875-.828-9.36-2.237zm196.481-63.119c3.893 31.643-.911 56.244-12.094 62.788-2.485 1.491-5.715 2.154-9.526 2.154-17.146 0-42.576-13.668-69.58-38.601 11.597-12.176 23.193-26.009 34.21-41.334 18.721-1.988 36.447-5.052 52.682-9.111 1.906 8.366 3.397 16.401 4.308 24.104zm31.891-55.25c-7.124 3.065-14.91 5.799-22.945 8.366-4.722-16.235-10.934-33.133-18.638-50.445 7.621-17.23 13.751-34.045 18.389-50.197 8.201 2.567 15.987 5.384 23.277 8.449 29.323 12.507 48.292 28.909 48.292 41.913-.083 13.005-19.052 29.489-48.375 41.914z" fill="#61DAFB"/><path d="M253.108 297.846c20.907 0 37.855-16.948 37.855-37.855 0-20.906-16.948-37.855-37.855-37.855-20.907 0-37.855 16.949-37.855 37.855 0 20.907 16.948 37.855 37.855 37.855z" fill="#61DAFB"/></svg>