<svg id="Capa_1" enable-background="new 0 0 512 512" height="512" viewBox="0 0 512 512" width="512" xmlns="http://www.w3.org/2000/svg" xmlns:xlink="http://www.w3.org/1999/xlink"><linearGradient id="SVGID_1_" gradientUnits="userSpaceOnUse" x1="314.087" x2="262.666" y1="-27.045" y2="230.057"><stop offset="0" stop-color="#c7d3ff"/><stop offset=".593" stop-color="#e7d8f5"/><stop offset=".997" stop-color="#ffdbed"/></linearGradient><path d="m38.145 134.71c19.974-57.707 57.562-157.818 137.712-129.893 31.204 10.872 41.003 52.164 72.37 57.311 29.626 4.861 54.704-24.255 82.89-29.776 35.014-6.859 72.067 2.317 85.37 36.48 15.916 40.874-30.997 86.737-19.655 124.062 18.708 61.564 87.863-40.471 100.229 58.88 17.304 139.025-136.801 386.519-240.619 182.998-52.643-103.199-107.815-30.825-189.876-82.161-77.922-48.747-53.805-144.567-28.421-217.901z" fill="url(#SVGID_1_)"/><path d="m443.81 385.233c-2.81-27.74-15.68-52.52-34.88-70.63-5.615-5.301-11.775-10.03-18.385-14.099h25.241c5.523 0 10-4.477 10-10v-77.944c0-5.523-4.477-10-10-10h-77.944c-2.981 0-5.65 1.312-7.482 3.382-24.823-67.124-56.592-112.354-76.952-136.859-8.02-9.653-22.798-9.653-30.817 0-5.154 6.203-11.04 13.738-17.357 22.616v-30.902c0-5.15-4.18-9.33-9.33-9.33h-84.91c-5.15 0-9.33 4.18-9.33 9.33v69.05c0 5.15 4.18 9.33 9.33 9.33h64.77c-20.139 37.227-40.267 85.996-53.148 146.774-48.193 9.494-85.379 49.632-90.427 99.279-.596 5.862 4.069 10.937 9.962 10.937h67.041c-.086 2.257-.169 4.517-.234 6.797-.32 11.268 8.725 20.586 19.998 20.586h28.681l-6.326 12.003-11.84 22.47c-3.5 6.66 1.32 14.66 8.85 14.66h16.742v13.85c0 5.523 4.477 10 10 10h15.5c5.523 0 10-4.477 10-10v-13.85h74.875v13.85c0 5.523 4.477 10 10 10h15.5c5.523 0 10-4.477 10-10v-13.85h16.742c7.53 0 12.35-8 8.85-14.66l-11.84-22.47-6.326-12.003h28.681c11.273 0 20.318-9.317 19.998-20.586-.065-2.281-.148-4.543-.234-6.801h67.042c5.889 0 10.559-5.07 9.959-10.93z" fill="#2626bc" opacity=".11"/><path d="m208.562 478.533h-15.5c-5.523 0-10-4.477-10-10v-30.954h35.5v30.954c0 5.523-4.477 10-10 10z" fill="#9fb0fe"/><path d="m183.062 437.579h35.5v27.621h-35.5z" fill="#8399fe"/><path d="m318.938 478.533h-15.5c-5.523 0-10-4.477-10-10v-30.954h35.5v30.954c0 5.523-4.477 10-10 10z" fill="#9fb0fe"/><path d="m293.438 437.579h35.5v27.621h-35.5z" fill="#8399fe"/><path d="m345.68 454.683h-179.36c-7.53 0-12.35-8-8.85-14.66l11.84-22.47 10.44-19.81h152.5l10.44 19.81 11.84 22.47c3.5 6.66-1.32 14.66-8.85 14.66z" fill="#d2deff"/><path d="m342.69 417.553h-173.38l10.44-19.81h152.5z" fill="#b7c5ff"/><path d="m451.85 378.163h-102.42v-112.35c30.01 0 57.28 11.7 77.5 30.79 19.2 18.11 32.07 42.89 34.88 70.63.6 5.86-4.07 10.93-9.96 10.93z" fill="#9fb0fe"/><path d="m426.93 296.603h-71.09c-2.44 0-4.67-.87-6.41-2.32v-28.47c30.01 0 57.28 11.7 77.5 30.79z" fill="#8399fe"/><path d="m50.189 367.23c5.792-56.964 53.891-101.416 112.384-101.416v112.354h-102.422c-5.893-.001-10.558-5.076-9.962-10.938z" fill="#9fb0fe"/><path d="m240.591 51.083c-36.202 43.573-108.481 152.678-113.634 333.881-.32 11.268 8.725 20.586 19.997 20.586h218.09c11.273 0 20.318-9.317 19.997-20.586-5.153-181.203-77.431-290.308-113.634-333.881-8.018-9.652-22.796-9.652-30.816 0z" fill="#ff7eb8"/><path d="m291.46 77.53c-9.51 8.21-21.9 13.18-35.46 13.18s-25.95-4.97-35.46-13.18c7.34-10.57 14.17-19.37 20.05-26.45 8.02-9.65 22.8-9.65 30.82 0 5.88 7.08 12.71 15.88 20.05 26.45z" fill="#02ffb3"/><path d="m376.75 296.603h-20.91c-5.52 0-10-4.48-10-10v-77.94c0-4.32 2.74-8 6.57-9.39 9.9 28.68 18.44 61.09 24.34 97.33z" fill="#ff5ba8"/><path d="m223.23 73.703v52.24c0 5.15-4.18 9.33-9.33 9.33h-27.48c12.52-25.02 25.37-45.5 36.81-61.57z" fill="#ff5ba8"/><path d="m284.359 405.143h-56.718v-95.277c0-2.761 2.239-5 5-5h46.718c2.761 0 5 2.239 5 5z" fill="#ffa8cf"/><path d="m433.787 282.504h-77.944c-5.523 0-10-4.477-10-10v-77.944c0-5.523 4.477-10 10-10h77.944c5.523 0 10 4.477 10 10v77.944c0 5.523-4.477 10-10 10z" fill="#02ffb3"/><path d="m443.783 194.563v77.94c0 5.52-4.47 10-10 10h-16.69c5.53 0 10-4.48 10-10v-77.94c0-5.53-4.47-10-10-10h16.69c5.53 0 10 4.47 10 10z" fill="#97ffd2"/><path d="m223.234 42.797v69.05c0 5.15-4.18 9.33-9.33 9.33h-84.91c-5.15 0-9.33-4.18-9.33-9.33v-69.05c0-5.15 4.18-9.33 9.33-9.33h84.91c5.15 0 9.33 4.18 9.33 9.33z" fill="#9fb0fe"/><path d="m160.875 62.786h-16.707c-2.762 0-5-2.239-5-5s2.238-5 5-5h16.707c2.762 0 5 2.239 5 5s-2.238 5-5 5z" fill="#dcfdee"/><path d="m223.234 42.797v69.05c0 5.15-4.18 9.33-9.33 9.33h-16.4c5.15 0 9.33-4.18 9.33-9.33v-69.05c0-5.15-4.18-9.33-9.33-9.33h16.4c5.15 0 9.33 4.18 9.33 9.33z" fill="#b7c5ff"/><path d="m223.234 60.877v50.97c0 5.15-4.18 9.33-9.33 9.33h-84.91c-5.15 0-9.33-4.18-9.33-9.33v-15.65h17.6c2.65 0 5.2-1.05 7.07-2.93l13.28-13.28c1.88-1.87 4.42-2.93 7.08-2.93h38.22c1.36 0 2.69-.28 3.92-.8 1.17-.5 2.24-1.21 3.15-2.13z" fill="#97ffd2"/><path d="m223.234 60.877v50.97c0 5.15-4.18 9.33-9.33 9.33h-16.4c5.15 0 9.33-4.18 9.33-9.33v-35.59c1.17-.5 2.24-1.21 3.15-2.13z" fill="#dcfdee"/><g fill="#ffdbed"><path d="m279.359 383.48v-65.195c0-2.762 2.239-5 5-5s5 2.238 5 5v65.195c0 2.762-2.239 5-5 5s-5-2.239-5-5z"/><circle cx="212.32" cy="344.276" r="5.59"/><circle cx="212.32" cy="327.366" r="5.59"/><circle cx="212.32" cy="310.456" r="5.59"/></g><circle cx="256" cy="180.453" fill="#ffc4df" r="45.147"/><path d="m301.15 180.453c0 24.93-20.22 45.15-45.15 45.15-16.5 0-30.94-8.86-38.81-22.08 6.42 3.52 13.8 5.52 21.64 5.52 24.93 0 45.14-20.21 45.14-45.14 0-8.44-2.31-16.33-6.33-23.09 14.01 7.67 23.51 22.55 23.51 39.64z" fill="#ffdbed"/><path d="m134.066 173.369c-3.739 0-7.479-1.423-10.325-4.27-2.759-2.758-4.278-6.425-4.278-10.326s1.52-7.568 4.278-10.326 6.425-4.277 10.325-4.277 7.567 1.519 10.326 4.278c5.693 5.693 5.693 14.957-.001 20.651-2.846 2.847-6.585 4.27-10.325 4.27zm0-19.199c-1.229 0-2.385.479-3.254 1.348-.87.87-1.35 2.026-1.35 3.255s.479 2.385 1.349 3.254c1.796 1.795 4.716 1.796 6.51 0 1.794-1.794 1.794-4.714 0-6.509-.87-.869-2.025-1.348-3.255-1.348z" fill="#8399fe"/><path d="m345.843 77.389c-3.9 0-7.567-1.519-10.326-4.278-5.693-5.693-5.693-14.957.001-20.651 5.693-5.693 14.957-5.693 20.65 0 5.694 5.694 5.694 14.958 0 20.651h.001c-.001 0-.001 0-.001 0-2.758 2.759-6.425 4.278-10.325 4.278zm0-19.203c-1.179 0-2.357.449-3.255 1.346-1.794 1.794-1.794 4.714 0 6.509.87.87 2.025 1.349 3.255 1.349s2.385-.479 3.254-1.348h.001c1.794-1.794 1.794-4.714 0-6.509-.898-.899-2.077-1.347-3.255-1.347z" fill="#ff7eb8"/><path d="m428.779 153.589h-3.25v-3.25c0-2.761-2.238-5-5-5s-5 2.239-5 5v3.25h-3.25c-2.762 0-5 2.239-5 5s2.238 5 5 5h3.25v3.25c0 2.761 2.238 5 5 5s5-2.239 5-5v-3.25h3.25c2.762 0 5-2.239 5-5s-2.238-5-5-5z" fill="#01eca5"/><path d="m114.605 185.051h-3.25v-3.25c0-2.761-2.238-5-5-5s-5 2.239-5 5v3.25h-3.25c-2.762 0-5 2.239-5 5s2.238 5 5 5h3.25v3.25c0 2.761 2.238 5 5 5s5-2.239 5-5v-3.25h3.25c2.762 0 5-2.239 5-5s-2.238-5-5-5z" fill="#ff7eb8"/><path d="m135.199 426.035h-3.25v-3.25c0-2.761-2.238-5-5-5s-5 2.239-5 5v3.25h-3.25c-2.762 0-5 2.239-5 5s2.238 5 5 5h3.25v3.25c0 2.761 2.238 5 5 5s5-2.239 5-5v-3.25h3.25c2.762 0 5-2.239 5-5s-2.238-5-5-5z" fill="#01eca5"/><path d="m432.911 354.866h-28.854c-2.762 0-5-2.239-5-5s2.238-5 5-5h28.854c2.762 0 5 2.239 5 5s-2.238 5-5 5z" fill="#d2deff"/><path d="m107.943 354.866h-28.854c-2.762 0-5-2.239-5-5s2.238-5 5-5h28.854c2.762 0 5 2.239 5 5s-2.238 5-5 5z" fill="#d2deff"/><path d="m377.65 229.378c-7.174 0-13.011-5.836-13.011-13.011s5.837-13.011 13.011-13.011 13.011 5.836 13.011 13.011-5.837 13.011-13.011 13.011zm0-16.021c-1.66 0-3.011 1.351-3.011 3.011s1.351 3.011 3.011 3.011 3.011-1.351 3.011-3.011-1.35-3.011-3.011-3.011z" fill="#fff"/><path d="m411.979 263.708c-7.174 0-13.011-5.836-13.011-13.011s5.837-13.011 13.011-13.011 13.011 5.836 13.011 13.011-5.837 13.011-13.011 13.011zm0-16.021c-1.66 0-3.011 1.351-3.011 3.011s1.351 3.011 3.011 3.011 3.011-1.351 3.011-3.011-1.35-3.011-3.011-3.011z" fill="#fff"/><path d="m380.622 252.726c-1.279 0-2.56-.488-3.535-1.464-1.953-1.953-1.953-5.119 0-7.071l28.386-28.386c1.951-1.952 5.119-1.952 7.07 0 1.953 1.953 1.953 5.119 0 7.071l-28.386 28.386c-.975.975-2.256 1.464-3.535 1.464z" fill="#fff"/><path d="m247.659 285.151h-5.332c-6.508 0-11.803-5.294-11.803-11.802v-16.457c0-6.508 5.295-11.803 11.803-11.803h5.332c6.508 0 11.802 5.295 11.802 11.803v16.457c0 6.507-5.294 11.802-11.802 11.802zm-5.332-30.062c-.994 0-1.803.809-1.803 1.803v16.457c0 .994.809 1.802 1.803 1.802h5.332c.993 0 1.802-.809 1.802-1.802v-16.457c0-.994-.809-1.803-1.802-1.803z" fill="#ffdbed"/><path d="m276.476 285.151c-2.762 0-5-2.239-5-5v-25.062h-.444c-2.762 0-5-2.239-5-5s2.238-5 5-5h5.444c2.762 0 5 2.239 5 5v30.062c0 2.761-2.239 5-5 5z" fill="#ffdbed"/><path d="m466.785 366.724c-3.191-31.386-18.495-59.55-42.604-79.22h9.606c8.271 0 15-6.729 15-15v-77.944c0-8.271-6.729-15-15-15h-77.944c-1.747 0-3.417.315-4.977.867-24.287-63.474-54.412-107.024-75.612-132.539-4.775-5.748-11.793-9.044-19.254-9.044s-14.479 3.297-19.254 9.044c-2.844 3.423-5.687 6.982-8.511 10.649v-15.739c0-7.902-6.429-14.331-14.331-14.331h-84.907c-7.902 0-14.331 6.429-14.331 14.331v53.38c0 .007-.002.013-.002.019v15.65c0 7.902 6.429 14.33 14.33 14.33h56.459c-16.716 32.181-30.377 67.022-40.643 103.689-3.112 11.115-5.898 22.419-8.388 33.88-23.676 5.352-44.825 17.691-61.261 35.818-17.034 18.787-27.389 42.01-29.946 67.159-.425 4.173.951 8.359 3.774 11.484 2.847 3.152 6.915 4.959 11.161 4.959h61.868c-.017.552-.043 1.102-.059 1.655-.193 6.815 2.317 13.261 7.069 18.15 4.749 4.886 11.116 7.577 17.927 7.577h20.397l-14.302 27.144c-2.472 4.69-2.312 10.201.428 14.741s7.541 7.25 12.844 7.25h11.74v8.848c0 8.271 6.729 15 15 15h15.5c8.271 0 15-6.729 15-15v-8.848h64.875v8.848c0 8.271 6.729 15 15 15h15.5c8.271 0 15-6.729 15-15v-8.848h11.74c5.303 0 10.104-2.71 12.844-7.25s2.899-10.051.428-14.741l-14.302-27.144h20.397c6.811 0 13.178-2.691 17.927-7.577 4.752-4.89 7.263-11.335 7.069-18.15-.016-.552-.038-1.103-.055-1.655h61.863c4.246 0 8.314-1.808 11.161-4.959 2.825-3.124 4.201-7.31 3.776-11.483zm-222.347-312.445c2.87-3.454 7.084-5.435 11.563-5.435s8.692 1.981 11.563 5.435c5.22 6.282 10.996 13.69 17.095 22.245-8.323 5.95-18.341 9.187-28.657 9.187-9.999 0-19.567-2.963-27.765-8.568v-1.842c5.303-7.394 10.753-14.467 16.201-21.022zm-26.205 57.568c0 .597-.121 1.166-.341 1.684-.659 1.552-2.199 2.643-3.988 2.643h-84.907c-2.388 0-4.331-1.943-4.331-4.331v-10.646h12.598c3.962 0 7.831-1.605 10.605-4.395l13.271-13.271c.956-.951 2.218-1.475 3.553-1.475h38.221c2.018 0 3.991-.402 5.885-1.202 1.799-.769 3.395-1.85 4.72-3.192l4.715-4.714v38.899zm-89.236-73.38h84.907c2.388 0 4.331 1.943 4.331 4.331v16.006l-11.81 11.809c-.432.438-.955.79-1.538 1.039-.637.269-1.301.405-1.974.405h-38.221c-3.996 0-7.763 1.558-10.614 4.395l-13.29 13.289c-.921.926-2.206 1.457-3.525 1.457h-12.598v-48.4c.001-2.388 1.944-4.331 4.332-4.331zm-68.847 334.7c-1.443 0-2.772-.591-3.741-1.663-.944-1.045-1.387-2.383-1.245-3.769 2.339-23.01 11.815-44.261 27.405-61.455 14.002-15.443 31.737-26.294 51.591-31.674-6.302 31.774-10.242 64.745-11.764 98.56h-62.246zm153.413 95.366c0 2.757-2.243 5-5 5h-15.5c-2.757 0-5-2.243-5-5v-8.848h25.5zm110.375 0c0 2.757-2.243 5-5 5h-15.5c-2.757 0-5-2.243-5-5v-8.848h25.5zm51.863-72.53c-2.85 2.932-6.67 4.547-10.756 4.547h-142.662c-2.762 0-5 2.239-5 5s2.238 5 5 5h110.961l16.758 31.805c1.188 2.254.296 4.187-.143 4.914s-1.733 2.417-4.281 2.417h-179.356c-2.548 0-3.843-1.69-4.281-2.417s-1.33-2.66-.143-4.914l16.758-31.805h15.627c2.762 0 5-2.239 5-5s-2.238-5-5-5h-47.328c-4.086 0-7.906-1.615-10.756-4.547-2.854-2.936-4.36-6.805-4.244-10.896 1.518-53.35 9.082-104.673 22.484-152.543 10.574-37.768 24.814-73.541 42.323-106.386h17.142c5.433 0 10.169-3.039 12.598-7.507 1.105-2.031 1.733-4.356 1.733-6.826v-23.033c8.506 4.525 17.964 6.898 27.765 6.898 12.363 0 24.369-3.867 34.36-10.975 17.138 25.297 36.165 59.248 52.4 102.509-1.217 2.167-1.918 4.66-1.918 7.316v29.056c0 2.761 2.238 5 5 5s5-2.239 5-5v-29.056c0-2.757 2.243-5 5-5h77.944c2.757 0 5 2.243 5 5v77.944c0 2.757-2.243 5-5 5h-77.944c-2.757 0-5-2.243-5-5v-20.788c0-2.761-2.238-5-5-5s-5 2.239-5 5v20.788c0 8.271 6.729 15 15 15h14.272c5.636 31.39 8.981 64.208 9.93 97.602.117 4.092-1.39 7.961-4.243 10.897zm79.79-24.499c-.969 1.072-2.298 1.663-3.741 1.663h-62.242c-1.317-29.247-4.448-57.99-9.334-85.663h26.838c28.238 17.881 46.356 47.099 49.725 80.232.141 1.385-.302 2.723-1.246 3.768z" fill="#2626bc"/><path d="m256 130.306c-27.65 0-50.146 22.496-50.146 50.147s22.496 50.146 50.146 50.146 50.146-22.496 50.146-50.146c0-27.651-22.496-50.147-50.146-50.147zm0 90.294c-22.137 0-40.146-18.01-40.146-40.146 0-22.137 18.01-40.147 40.146-40.147s40.146 18.01 40.146 40.147c0 22.136-18.009 40.146-40.146 40.146z" fill="#2626bc"/><path d="m228.08 185.453c-2.762 0-5-2.239-5-5 0-9.594 3.736-18.615 10.52-25.399 1.953-1.953 5.118-1.953 7.071 0s1.953 5.118.001 7.071c-4.896 4.896-7.592 11.405-7.592 18.329 0 2.76-2.238 4.999-5 4.999z" fill="#ffdbed"/></svg>