<svg id="Capa_1" enable-background="new 0 0 512 512" height="512" viewBox="0 0 512 512" width="512" xmlns="http://www.w3.org/2000/svg" xmlns:xlink="http://www.w3.org/1999/xlink"><linearGradient id="SVGID_1_" gradientTransform="matrix(.987 .163 -.163 .987 -307.554 7.178)" gradientUnits="userSpaceOnUse" x1="806.171" x2="481.198" y1="224.463" y2="92.828"><stop offset=".0112" stop-color="#dcfdee"/><stop offset=".7774" stop-color="#ccddfb"/><stop offset="1" stop-color="#c7d3ff"/></linearGradient><path d="m335.857.425c-95.818 8.652-105.091 192.429-146.416 286.587-20.478 46.658-68.772 94.794-60.258 149.782 9.605 62.035 72.897 80.075 121.683 74.14 120.723-14.685 172.899-141.053 180.797-260.801 4.869-73.829 20.301-260.192-95.806-249.708z" fill="url(#SVGID_1_)"/><path d="m426.718 258.098h.411c5.939 0 10.753-4.814 10.753-10.753s-4.814-10.753-10.753-10.753h-.411l27.613-27.248c6.364-6.28 1.917-17.118-7.024-17.118h-60.376c-2.629 0-5.152 1.035-7.024 2.882l-42.039 41.484h-26.246v-160.802c0-11.6-9.4-21-21-21h-205.64c-11.6 0-21 9.4-21 21v402.42c0 11.6 9.4 21 21 21h205.64c11.6 0 21-9.4 21-21v-220.112h26.246l42.039 41.484c1.871 1.847 4.395 2.882 7.024 2.882h60.376c8.941 0 13.388-10.838 7.024-17.118z" fill="#2626bc" opacity=".11"/><path d="m332.622 54.79v402.42c0 11.6-9.4 21-21 21h-205.64c-11.6 0-21-9.4-21-21v-402.42c0-11.6 9.4-21 21-21h205.64c11.6 0 21 9.4 21 21z" fill="#97ffd2"/><path d="m211.001 226.16h121.62v21.51h-121.62z" fill="#02ffb3"/><path d="m332.62 88v-33.213c0-11.598-9.402-21-21-21h-205.637c-11.598 0-21 9.402-21 21v33.213z" fill="#6583fe"/><path d="m332.621 54.787v33.21h-21.88v-33.21c0-11.6-9.4-21-21-21h21.88c11.6 0 21 9.4 21 21z" fill="#8399fe"/><g fill="#fff"><circle cx="119.635" cy="61.983" r="5.59"/><circle cx="139.545" cy="61.983" r="5.59"/><circle cx="159.455" cy="61.983" r="5.59"/></g><path d="m140.638 355.509h-10.52c-2.762 0-5-2.239-5-5s2.238-5 5-5h10.52c2.762 0 5 2.239 5 5s-2.238 5-5 5z" fill="#6583fe"/><path d="m270.72 420h-153.879c-2.761 0-5-2.239-5-5v-45.382c0-2.761 2.239-5 5-5h153.879c2.761 0 5 2.239 5 5v45.382c0 2.761-2.239 5-5 5z" fill="#01eca5"/><path d="m444.678 218.591h-88.85l45.079-44.484c1.871-1.847 4.395-2.882 7.024-2.882h60.376c8.941 0 13.388 10.838 7.024 17.118z" fill="#97ffd2"/><path d="m389.878 219.574c-1.291 0-2.581-.497-3.559-1.488-1.94-1.965-1.919-5.131.047-7.071l23.497-23.187c1.965-1.938 5.132-1.919 7.07.047 1.94 1.965 1.919 5.131-.047 7.071l-23.497 23.187c-.973.961-2.243 1.441-3.511 1.441z" fill="#ff7eb8"/><path d="m417.077 219.574c-1.291 0-2.581-.497-3.559-1.488-1.94-1.965-1.919-5.131.047-7.071l23.497-23.187c1.964-1.938 5.132-1.919 7.07.047 1.94 1.965 1.919 5.131-.047 7.071l-23.497 23.187c-.973.961-2.242 1.441-3.511 1.441z" fill="#ff7eb8"/><path d="m468.304 281.46h-60.37c-2.63 0-5.16-1.03-7.03-2.88l-31.33-30.91-13.75-13.57h88.85l13.75 13.57 16.91 16.68c6.36 6.28 1.91 17.11-7.03 17.11z" fill="#97ffd2"/><path d="m458.424 247.67h-88.85l-13.75-13.57h88.85z" fill="#02ffb3"/><path d="m413.375 266.302c-1.269 0-2.538-.479-3.512-1.441l-23.497-23.187c-1.966-1.939-1.987-5.105-.047-7.071 1.939-1.967 5.107-1.987 7.07-.047l23.497 23.187c1.966 1.939 1.987 5.105.047 7.071-.977.992-2.268 1.488-3.558 1.488z" fill="#ff7eb8"/><path d="m440.574 266.302c-1.269 0-2.538-.479-3.512-1.441l-23.497-23.187c-1.966-1.939-1.987-5.105-.047-7.071 1.939-1.967 5.106-1.987 7.07-.047l23.497 23.187c1.966 1.939 1.987 5.105.047 7.071-.977.992-2.268 1.488-3.558 1.488z" fill="#ff7eb8"/><ellipse cx="211" cy="226.345" fill="#ffa8cf" rx="97.091" ry="101.101"/><path d="m308.072 227.941c-.1 7.39-.97 14.59-2.54 21.51h-94.53v-21.51z" fill="#ff7eb8"/><ellipse cx="211" cy="226.345" fill="#ffdbed" rx="58.835" ry="65.101"/><path d="m269.812 227.941c-.16 7.56-1.5 14.8-3.82 21.51h-54.99v-21.51z" fill="#ffc4df"/><path d="m211 255.446c-9.714 0-20.579-12.445-20.579-29.101s10.865-29.101 20.579-29.101 20.578 12.445 20.578 29.101-10.864 29.101-20.578 29.101z" fill="#ff7eb8"/><path d="m231.552 227.941c-.38 8.96-3.89 16.58-8.59 21.51h-11.96v-21.51z" fill="#ff5ba8"/><path d="m448.129 237.098h-237.129v-21.506h237.129c5.939 0 10.753 4.814 10.753 10.753 0 5.939-4.814 10.753-10.753 10.753z" fill="#6583fe"/><path d="m230.638 389.914h-100.52c-2.762 0-5-2.239-5-5s2.238-5 5-5h100.52c2.762 0 5 2.239 5 5s-2.238 5-5 5z" fill="#dcfdee"/><path d="m230.638 407.704h-100.52c-2.762 0-5-2.239-5-5s2.238-5 5-5h100.52c2.762 0 5 2.239 5 5s-2.238 5-5 5z" fill="#dcfdee"/><path d="m208.801 449.337c-1.328 0-2.601-.528-3.539-1.468l-5.83-5.84c-1.951-1.954-1.948-5.12.006-7.071 1.954-1.95 5.121-1.948 7.071.006l2.291 2.295 2.292-2.295c1.951-1.954 5.117-1.957 7.071-.006s1.957 5.117.006 7.071l-5.83 5.84c-.937.94-2.21 1.468-3.538 1.468z" fill="#2626bc"/><path d="m269.329 388.147h-5.016c-6.286 0-11.4-5.114-11.4-11.4v-15.483c0-6.286 5.114-11.4 11.4-11.4h5.016c6.286 0 11.4 5.114 11.4 11.4v15.483c.001 6.286-5.113 11.4-11.4 11.4zm-5.015-28.283c-.772 0-1.4.628-1.4 1.4v15.483c0 .772.628 1.4 1.4 1.4h5.016c.772 0 1.4-.628 1.4-1.4v-15.483c0-.772-.628-1.4-1.4-1.4z" fill="#2d58e0"/><path d="m296.441 388.147c-2.762 0-5-2.239-5-5v-23.283h-.122c-2.762 0-5-2.239-5-5s2.238-5 5-5h5.122c2.762 0 5 2.239 5 5v28.283c0 2.761-2.239 5-5 5z" fill="#2d58e0"/><path d="m457.068 239.301c4.111-2.845 6.814-7.589 6.814-12.956s-2.702-10.111-6.813-12.956l21.773-21.486c4.417-4.358 5.697-10.631 3.342-16.372s-7.673-9.306-13.877-9.306h-60.376c-3.969 0-7.71 1.535-10.536 4.323l-40.579 40.043h-19.197v-155.804c0-14.336-11.663-26-26-26h-205.636c-14.336 0-26 11.664-26 26v321.497c0 2.761 2.239 5 5 5s5-2.239 5-5v-283.284h237.637v117.591h-111.62v-13.348c0-2.761-2.239-5-5-5s-5 2.239-5 5v58.202c0 2.761 2.239 5 5 5s5-2.239 5-5v-34.854h232.129c3.172 0 5.753 2.581 5.753 5.753s-2.581 5.753-5.753 5.753h-209.422c-2.761 0-5 2.239-5 5s2.239 5 5 5h88.913v215.115c0 8.822-7.178 16-16 16h-205.637c-8.822 0-16-7.178-16-16v-52.83c0-2.761-2.239-5-5-5s-5 2.239-5 5v52.83c0 14.336 11.664 26 26 26h205.637c14.337 0 26-11.664 26-26v-215.114h19.196l40.579 40.043c2.826 2.788 6.568 4.323 10.536 4.323h60.376c6.204 0 11.521-3.565 13.877-9.306s1.075-12.013-3.342-16.372zm-367.085-156.301v-28.213c0-8.822 7.178-16 16-16h205.637c8.822 0 16 7.178 16 16v28.213zm314.435 94.667c.941-.93 2.189-1.441 3.513-1.441h60.376c3.111 0 4.327 2.374 4.625 3.102.299.728 1.102 3.272-1.113 5.458l-26.152 25.807h-74.614zm68.514 95.695c-.298.728-1.514 3.102-4.625 3.102h-60.376c-1.323 0-2.57-.512-3.513-1.441l-33.366-32.925h74.613l26.153 25.807c2.215 2.185 1.413 4.729 1.114 5.457z" fill="#2626bc"/><path d="m211 178.413c-2.761 0-5-2.239-5-5v-55.22c0-2.761 2.239-5 5-5s5 2.239 5 5v55.22c0 2.761-2.239 5-5 5z" fill="#ffc4df"/><path d="m211 339.496c-2.761 0-5-2.239-5-5v-55.22c0-2.761 2.239-5 5-5s5 2.239 5 5v55.22c0 2.761-2.239 5-5 5z" fill="#ffc4df"/><path d="m279.243 193.952c-2.762 0-5-2.239-5-5v-3.5c0-2.761 2.238-5 5-5s5 2.239 5 5v3.5c0 2.761-2.238 5-5 5z" fill="#8399fe"/><path d="m257.391 166.867c-2.761 0-5-2.239-5-5v-3.5c0-2.761 2.239-5 5-5 2.762 0 5 2.239 5 5v3.5c0 2.761-2.238 5-5 5z" fill="#ff5ba8"/><path d="m279.243 271.869c-2.762 0-5-2.239-5-5v-3.5c0-2.761 2.238-5 5-5s5 2.239 5 5v3.5c0 2.761-2.238 5-5 5z" fill="#8399fe"/><path d="m257.391 298.953c-2.761 0-5-2.239-5-5v-3.5c0-2.761 2.239-5 5-5 2.762 0 5 2.239 5 5v3.5c0 2.761-2.238 5-5 5z" fill="#ff5ba8"/><path d="m142.76 193.952c-2.761 0-5-2.239-5-5v-3.5c0-2.761 2.239-5 5-5s5 2.239 5 5v3.5c0 2.761-2.239 5-5 5z" fill="#8399fe"/><path d="m164.612 166.867c-2.761 0-5-2.239-5-5v-3.5c0-2.761 2.239-5 5-5s5 2.239 5 5v3.5c0 2.761-2.239 5-5 5z" fill="#ff5ba8"/><path d="m142.76 271.869c-2.761 0-5-2.239-5-5v-3.5c0-2.761 2.239-5 5-5s5 2.239 5 5v3.5c0 2.761-2.239 5-5 5z" fill="#8399fe"/><path d="m164.612 298.953c-2.761 0-5-2.239-5-5v-3.5c0-2.761 2.239-5 5-5s5 2.239 5 5v3.5c0 2.761-2.239 5-5 5z" fill="#ff5ba8"/><path d="m444.087 368.318h-3.25v-3.25c0-2.761-2.238-5-5-5s-5 2.239-5 5v3.25h-3.25c-2.762 0-5 2.239-5 5s2.238 5 5 5h3.25v3.25c0 2.761 2.238 5 5 5s5-2.239 5-5v-3.25h3.25c2.762 0 5-2.239 5-5s-2.238-5-5-5z" fill="#01eca5"/><path d="m368.405 34.463h-3.25v-3.25c0-2.761-2.238-5-5-5s-5 2.239-5 5v3.25h-3.25c-2.762 0-5 2.239-5 5s2.238 5 5 5h3.25v3.25c0 2.761 2.238 5 5 5s5-2.239 5-5v-3.25h3.25c2.762 0 5-2.239 5-5s-2.239-5-5-5z" fill="#ff7eb8"/><path d="m50.154 417.873h-3.25v-3.25c0-2.761-2.239-5-5-5s-5 2.239-5 5v3.25h-3.25c-2.761 0-5 2.239-5 5s2.239 5 5 5h3.25v3.25c0 2.761 2.239 5 5 5s5-2.239 5-5v-3.25h3.25c2.761 0 5-2.239 5-5s-2.239-5-5-5z" fill="#ff7eb8"/><path d="m391.172 353.467c-1.458 0-2.923-.221-4.354-.666-3.724-1.158-6.774-3.697-8.59-7.15-1.814-3.453-2.176-7.406-1.018-11.13 2.392-7.688 10.586-11.998 18.281-9.607 3.724 1.158 6.774 3.697 8.589 7.15 1.814 3.453 2.176 7.406 1.018 11.13s-3.697 6.775-7.15 8.59c-2.125 1.116-4.441 1.683-6.776 1.683zm-.014-19.213c-1.963 0-3.785 1.266-4.398 3.237-.365 1.173-.251 2.419.32 3.507.572 1.088 1.534 1.889 2.708 2.254 1.173.364 2.419.252 3.508-.321 1.089-.572 1.889-1.533 2.254-2.707.365-1.174.251-2.42-.32-3.508-.572-1.088-1.534-1.888-2.707-2.253-.455-.142-.914-.209-1.365-.209z" fill="#8399fe"/><path d="m50.145 396.597c-1.433 0-2.889-.213-4.327-.66-3.725-1.158-6.775-3.697-8.59-7.15-1.814-3.453-2.176-7.406-1.018-11.13s3.697-6.775 7.15-8.589c3.454-1.814 7.406-2.177 11.13-1.018 3.725 1.158 6.776 3.697 8.59 7.15 1.815 3.453 2.176 7.405 1.018 11.13-1.943 6.25-7.727 10.267-13.953 10.267zm.012-19.207c-1.963 0-3.785 1.266-4.398 3.236-.365 1.174-.251 2.42.321 3.508s1.534 1.889 2.708 2.254c2.42.75 5.007-.605 5.762-3.029.365-1.174.251-2.419-.321-3.508-.572-1.088-1.534-1.889-2.708-2.254-.453-.14-.912-.207-1.364-.207zm9.167 7.454h.01z" fill="#8399fe"/></svg>