<svg width="233" height="233" fill="none" xmlns="http://www.w3.org/2000/svg"><g clip-path="url(#clip0)"><path d="M115.184 116.871L83.7 135.079V98.626l31.558-18.208-.074 36.453z" fill="#79B8FF"/><path d="M83.663 71.036a9.827 9.827 0 110-19.654 9.827 9.827 0 010 19.654zm0-12.237a2.41 2.41 0 102.41 2.41 2.41 2.41 0 00-2.41-2.336v-.074zM84.516 181.247a9.825 9.825 0 01-6.949-16.776 9.827 9.827 0 116.949 16.776zm0-12.237a2.409 2.409 0 00-.47 4.774 2.414 2.414 0 002.474-1.025c.265-.396.406-.862.406-1.339a2.412 2.412 0 00-2.41-2.447v.037zM52.365 126.401a9.826 9.826 0 01-1.917-19.465 9.827 9.827 0 111.917 19.465zm0-12.237a2.41 2.41 0 00-.47 4.774 2.406 2.406 0 002.474-1.025 2.408 2.408 0 00-2.004-3.749zM180.635 126.401a9.825 9.825 0 01-9.638-11.744 9.827 9.827 0 119.638 11.744zm0-12.237a2.41 2.41 0 10-.001 4.819 2.41 2.41 0 00.001-4.819z" fill="#2088FF"/><path d="M177.632 134.93a3.712 3.712 0 00-3.709 3.709v6.712l-12.386-7.194a3.713 3.713 0 00-4.127.275 3.7 3.7 0 00-1.306 3.901c.257.945.877 1.75 1.725 2.239l12.126 7.009-5.525 3.189a3.714 3.714 0 00-1.592 1.792 3.713 3.713 0 001.172 4.383 3.706 3.706 0 002.274.759 3.701 3.701 0 001.854-.519l13.091-7.416v-15.13a3.708 3.708 0 00-3.597-3.709zM168.138 71.666a3.72 3.72 0 00-5.446 4.197 3.719 3.719 0 001.738 2.256l5.525 3.152-12.979 7.417a3.706 3.706 0 00-1.754 4.184 3.707 3.707 0 003.608 2.75 3.713 3.713 0 001.855-.519l13.238-7.49v6.748a3.71 3.71 0 006.331 2.623 3.71 3.71 0 001.086-2.623v-15.13l-13.202-7.564z" fill="#79B8FF"/><path d="M148.558 138.008a3.714 3.714 0 01-1.854-.519l-31.595-18.097a3.71 3.71 0 013.709-6.415l31.595 18.097a3.708 3.708 0 011.26 5.043 3.706 3.706 0 01-3.115 1.891z" fill="#2088FF"/><path d="M116.964 119.912a3.712 3.712 0 01-3.709-3.709l.223-35.08a3.706 3.706 0 013.708-3.709 3.706 3.706 0 013.708 3.709l-.222 35.043a3.712 3.712 0 01-3.708 3.746z" fill="#2088FF"/><path d="M86.296 137.452a3.705 3.705 0 01-3.609-2.75 3.709 3.709 0 011.755-4.185l30.667-17.54a3.711 3.711 0 015.551 4.163 3.696 3.696 0 01-1.842 2.252L88.15 136.97a3.716 3.716 0 01-1.854.482z" fill="#2088FF"/><path d="M117.038 156.327a3.694 3.694 0 01-1.854-.482L83.626 137.6a3.706 3.706 0 01-1.854-3.189V97.958a3.709 3.709 0 011.854-3.226l31.558-18.208a3.705 3.705 0 013.708 0l31.558 18.208a3.718 3.718 0 011.361 1.364 3.72 3.72 0 01.493 1.862v36.453a3.706 3.706 0 01-1.854 3.189l-31.558 18.245a3.697 3.697 0 01-1.854.482zm-27.85-24.067l27.85 16.094 27.849-16.094v-32.188l-27.849-16.057-27.85 16.057v32.188zM148.818 71.036a9.827 9.827 0 110-19.655 9.827 9.827 0 010 19.655zm0-12.237a2.408 2.408 0 00-2.364 2.88 2.404 2.404 0 001.894 1.894 2.409 2.409 0 002.88-2.364 2.408 2.408 0 00-2.41-2.336v-.074zM149.337 181.878a9.84 9.84 0 01-5.48-1.62 9.827 9.827 0 115.48 1.62zm0-12.238a2.415 2.415 0 00-2.227 1.488 2.415 2.415 0 00.523 2.627 2.409 2.409 0 004.115-1.704 2.449 2.449 0 00-2.411-2.411z" fill="#2088FF"/><path d="M126.123 177.02l-5.637 3.226v-13.832a3.704 3.704 0 00-3.708-3.708 3.706 3.706 0 00-3.708 3.708v13.795l-5.896-3.189a3.708 3.708 0 00-5.044 1.335 3.71 3.71 0 001.335 5.08l13.091 7.417 13.127-7.417a3.714 3.714 0 001.722-2.263 3.697 3.697 0 00-.387-2.817 3.71 3.71 0 00-4.895-1.335zM129.831 49.565l-13.127-7.417-13.239 7.417a3.706 3.706 0 00-1.221 4.985 3.709 3.709 0 004.93 1.43l5.747-3.3v12.386a3.707 3.707 0 003.709 3.708 3.708 3.708 0 003.708-3.708V52.717l5.637 3.263c.554.315 1.18.48 1.817.482a3.709 3.709 0 001.891-6.897h.148zM75.838 88.54l-12.46-7.417 5.637-3.227a3.721 3.721 0 00-3.708-6.452l-13.09 7.417v15.13a3.708 3.708 0 107.416 0v-6.267l12.46 7.416a3.707 3.707 0 005.08-1.372 3.709 3.709 0 00-1.335-5.229zM71.351 138.416l-11.718 6.823v-6.6a3.71 3.71 0 00-3.708-3.709 3.71 3.71 0 00-3.709 3.709v15.092l1.373.816c.3.221.623.408.964.557l10.754 6.192a3.708 3.708 0 003.708-6.415l-5.637-3.3 11.719-6.787a3.707 3.707 0 10-3.708-6.415l-.038.037z" fill="#79B8FF"/></g><defs><clipPath id="clip0"/></defs></svg>